<svg width="87" height="78" viewBox="0 0 87 78" fill="none" xmlns="http://www.w3.org/2000/svg">
<path d="M86.7984 40.3401C86.7059 40.0585 86.8908 39.7769 86.8908 39.4954C86.8908 38.8384 86.8909 38.1814 86.7984 37.5244C86.4285 35.2719 85.9661 33.0194 85.5038 30.8608C85.4113 30.4854 85.3188 30.2038 85.1339 29.8284C84.764 28.796 84.4866 27.7636 83.9317 26.7312C83.4694 25.7927 82.7296 24.948 82.0823 24.0094C81.9898 23.9156 81.8973 23.7279 81.8973 23.634C81.3425 22.4139 80.5102 21.3815 79.4006 20.6307C78.6608 20.0676 78.0135 19.3167 77.8285 18.2843C77.6436 17.3458 77.0887 16.6888 76.5339 16.0318C75.0544 14.0609 73.2974 12.2777 71.1705 10.9637C70.8006 10.776 70.5232 10.4006 70.1533 10.119C68.9512 9.18049 67.749 8.24194 66.2695 7.77267C65.1598 7.39726 64.2351 6.83413 63.3103 5.98944C61.4609 4.39392 59.4265 3.26767 56.9297 3.07996C55.1727 2.89226 53.3233 2.51684 51.6588 1.76601C49.8093 0.921319 47.9599 0.545902 46.0179 0.358194C42.6889 -0.111077 39.4524 -0.0172226 36.1234 0.0766316C33.8116 0.170486 31.6847 0.452048 29.4653 1.10903C27.1535 1.76601 25.0267 2.89226 22.8073 3.92465C20.4955 4.95705 18.3686 6.0833 16.5192 7.77267C16.3342 7.96038 16.0568 8.14809 15.8719 8.3358C14.2074 9.36819 12.7278 10.6822 11.7106 12.4654C11.6181 12.6531 11.4332 12.8408 11.2482 12.9347C9.0289 14.7179 8.0117 17.4397 6.25472 19.5983C6.06978 19.786 6.06978 20.1614 5.9773 20.443C5.79236 21.1938 5.42247 21.7569 4.86763 22.3201C4.03538 23.0709 3.57302 24.1033 3.38807 25.2295C3.2956 25.8865 2.92571 26.6374 2.55582 27.2005C2.09345 28.0452 1.72356 28.9837 1.81604 29.9223C1.90851 30.4854 1.81604 30.9547 1.53862 31.4239C0.891309 32.4563 0.613891 33.4887 0.983782 34.8027C1.07625 35.2719 0.983782 35.8351 0.706364 36.3043C0.151528 37.2429 0.151528 38.0876 0.428946 39.0261C0.521419 39.4015 0.521419 39.9647 0.336474 40.3401C-0.125889 41.3725 -0.0334169 42.4987 0.151528 43.625C0.336474 44.4697 0.336474 45.4082 0.613891 46.2529C1.2612 48.0361 2.00098 49.8193 2.64829 51.5087C2.83323 51.4149 3.01818 51.5087 3.11065 51.6026C3.85043 52.4473 4.40527 53.3858 4.68269 54.4182C4.77516 54.7936 4.9601 55.3567 5.23752 55.5444C6.34719 56.2953 6.71708 57.5154 7.27192 58.5478C7.91923 59.674 8.65901 60.6126 9.67621 61.3634C10.231 61.7388 10.6009 62.3019 10.9708 62.7712C11.8031 63.7098 12.5429 64.836 13.6525 65.3053C14.9471 65.8684 15.9643 66.8069 16.9815 67.7455C17.8138 68.5902 18.831 69.1533 20.0331 69.341C21.1428 69.5287 22.16 69.9041 23.1772 70.1857C24.9342 70.7488 26.7836 71.4058 28.5406 71.9689C29.8352 72.3443 31.2223 72.7198 32.6094 72.8136C36.7707 72.9075 41.0244 73.2829 45.2782 72.9075C47.3126 72.7198 48.9771 72.0628 50.3642 70.655C51.5663 69.4349 52.8609 68.7779 54.433 68.2148C55.82 67.7455 57.1147 66.9947 57.9469 65.7745C58.5942 64.836 59.334 64.0852 60.3512 63.6159C61.1835 63.1466 61.8308 62.4897 62.2007 61.5511C62.4781 60.5187 63.2179 59.7679 63.9576 59.1109C64.6049 58.5478 65.0673 57.7969 65.2523 56.8584C65.4372 55.7322 65.8996 54.7936 66.8243 54.0428C67.3791 53.5735 67.5641 52.8227 67.749 52.0718C67.934 51.321 68.0264 50.4763 68.3039 49.7255C69.0436 47.6607 69.506 45.5959 69.506 43.5311C69.5985 38.2753 68.7662 33.1133 65.6221 28.6083C65.5297 28.4206 65.3447 28.2329 65.2523 28.0452C64.7899 26.6374 63.7727 25.7927 62.5705 24.948C61.9232 24.4787 61.1835 24.0094 60.8136 23.3525C60.0738 22.2262 59.1491 21.5692 57.9469 21.1C56.6523 20.6307 55.5426 19.9737 54.6179 19.129C53.4158 18.0028 52.0287 17.3458 50.4566 16.7827C49.347 16.4073 48.3298 15.938 47.3126 15.3749C44.8158 13.8732 41.9492 13.5916 39.175 13.3101C38.99 13.3101 38.8976 13.3101 38.7126 13.3101C37.0481 13.6855 35.2911 14.0609 33.6266 14.9994C32.7019 15.5626 31.7772 16.1257 30.76 16.5011C27.246 17.8151 25.0267 20.6307 22.345 22.977C22.0675 23.2586 21.8826 23.7279 21.6052 24.1033C20.9579 25.0418 20.2181 25.9804 19.5708 26.9189C19.2009 27.482 18.9235 28.0452 18.6461 28.6083C18.2762 29.453 17.9063 30.3915 17.4439 31.2362C17.259 31.7055 16.8891 32.1748 16.7966 32.644C16.4267 34.615 15.5945 36.5859 16.1493 38.7445C16.2418 39.12 16.1493 39.4954 16.1493 39.8708C15.8719 41.9356 16.3342 44.0004 16.7966 45.9713C17.5364 48.9747 19.2009 51.5087 21.1428 53.7612C21.8826 54.6059 22.7148 55.2629 23.732 55.7322C24.9342 56.2953 26.0439 57.0461 27.1535 57.7031C28.6331 58.5478 30.1127 59.2986 31.8696 59.2986C34.5513 59.2986 37.233 59.2986 39.9148 59.2986C41.4868 59.2986 42.6889 58.6416 43.9835 57.8908C47.2201 55.7322 49.2545 52.4473 51.6588 49.5378C51.7512 49.3501 51.8437 49.1624 51.9362 48.9747C53.7856 44.6574 53.8781 40.2462 52.676 35.7412C52.5835 35.5535 52.491 35.3658 52.3986 35.1781C50.919 32.4563 48.9771 30.11 46.1104 28.7022C45.4631 28.4206 44.8158 28.0452 44.261 27.5759C42.4115 26.1681 40.3771 25.605 38.1578 25.8865C36.3083 26.0742 34.5513 26.4497 32.8868 27.2005C32.0546 27.482 31.3148 27.9513 30.6675 28.5144C29.003 30.2038 26.5062 32.1748 26.9686 34.5211C27.1535 35.3658 27.246 36.0228 27.5234 36.8675C28.1707 38.9323 28.7256 39.5892 29.3729 40.4339L29.7428 40.9971C30.1127 41.7479 30.2976 42.0294 30.8524 42.6864C31.3148 43.2495 31.7772 43.625 32.2395 44.2819C31.9621 44.2819 31.7772 44.3758 31.6847 44.3758C30.9449 44.2819 30.2051 44.1881 29.4653 44.0004C28.9105 43.9065 28.4482 43.7188 27.8933 43.8127C27.8008 44.0942 27.8008 44.2819 27.8008 44.5635C27.8008 45.1266 27.7084 45.5959 27.7084 46.159C28.5406 46.5344 29.4653 46.5344 30.2976 46.4406C30.76 46.4406 31.3148 46.4406 31.7772 46.6283C32.7019 47.0976 33.6266 47.1914 34.5513 47.1914C35.1987 47.1914 35.1987 47.1914 35.846 47.5668C36.3083 47.3791 36.5857 47.0037 36.4933 46.4406C36.3083 45.502 35.9384 44.5635 36.0309 43.625C35.846 43.0618 35.9384 42.4987 35.9384 41.9356C36.0309 41.1848 35.9384 40.3401 35.661 39.5892C35.4761 39.2138 35.1987 38.8384 34.8288 38.6507C34.3664 38.3691 33.9965 38.6507 33.9965 39.2138C34.089 40.2462 34.1815 41.3725 34.1815 42.4049C34.1815 42.8741 34.2739 43.3434 34.1815 43.7188C33.7191 43.625 33.5341 43.3434 33.3492 43.0618C32.9793 42.5926 32.7944 42.1233 32.332 41.8417C31.5922 41.2786 31.2223 40.5278 30.9449 39.6831C30.76 39.2138 30.575 38.6507 30.3901 38.1814L30.1127 37.4306C29.9277 37.149 29.9277 36.7736 29.9277 36.4921C29.8352 35.8351 29.4653 35.3658 29.7428 34.8027C30.2976 33.2072 31.2223 31.8932 32.5169 30.9547C34.2739 29.7345 36.2158 29.3591 38.2502 29.0776C40.1922 28.8899 41.9492 29.3591 43.6137 30.3915C44.4459 30.9547 45.3706 31.3301 46.2029 31.8932C47.0351 32.4563 47.9599 33.0194 48.6072 33.7703C52.3061 37.8999 52.0287 42.968 49.2545 47.473C48.3298 48.9747 47.2201 50.3825 46.1104 51.6964C44.261 53.7612 42.1341 55.4506 39.3599 55.7322C35.661 56.1076 31.8696 56.3891 28.1707 54.7936C25.9514 53.8551 24.0095 52.635 22.345 50.664C20.588 48.5992 19.5708 46.3467 19.2934 43.7188C18.9235 40.9032 18.831 38.1814 19.7557 35.3658C21.0503 31.2362 23.0847 27.6698 26.0439 24.6664C27.7084 22.977 29.5578 21.4754 31.4997 20.3491C33.4417 19.2229 35.661 18.6598 37.7879 17.9089C38.6201 17.6274 39.5449 17.5335 40.3771 17.6274C42.319 17.8151 44.261 18.0028 46.2029 18.3782C47.9599 18.6598 49.5319 19.5044 51.0115 20.443C52.1211 21.1938 53.3233 22.0385 54.5254 22.6955C56.4674 23.7279 58.4093 24.6664 59.8888 26.3558C60.0738 26.5435 60.2587 26.6374 60.4437 26.7312C62.3856 28.2329 63.8652 30.11 64.8824 32.3625C67.1942 37.5244 67.1017 42.7803 65.7146 48.13C64.8824 51.2272 63.3103 54.0428 61.6458 56.6707C60.2587 58.9232 58.5942 61.0818 56.3749 62.8651C54.6179 64.2729 52.9534 65.5868 50.919 66.5254C50.0867 66.9008 49.347 67.3701 48.6072 67.7455C47.3126 68.4963 45.833 68.9656 44.261 69.1533C40.0072 69.7164 35.846 69.0594 31.6847 68.8717C31.4073 68.8717 31.1299 68.684 30.8524 68.684C29.003 68.4025 27.1535 68.027 25.3041 67.7455C23.2697 67.3701 21.4202 66.6192 19.7557 65.3991C18.5536 64.5544 17.3514 63.7098 16.1493 62.9589C15.5945 62.5835 15.0396 62.3019 14.5773 61.8327C13.3751 60.6126 12.173 59.2986 10.9708 57.9847C10.5085 57.4215 10.0461 56.8584 9.67621 56.2014C9.30632 55.7322 9.0289 55.169 8.65901 54.7936C6.9945 53.0104 5.88483 50.8517 4.9601 48.5992C4.03538 46.4406 3.66549 44.0942 3.66549 41.654C3.48054 37.5244 4.3128 33.4887 5.60741 29.5468C6.16225 27.8575 6.80956 26.1681 7.73428 24.7603C9.49126 21.9447 11.3407 19.2229 13.1902 16.5011C13.4676 16.0318 13.8375 15.6564 14.2074 15.281C15.2246 14.2486 16.2418 13.2162 17.3514 12.1838C17.9987 11.5268 18.831 10.9637 19.5708 10.4006C21.0503 9.36819 22.5299 8.42965 24.0095 7.58496C24.6568 7.20955 25.3041 6.83413 25.9514 6.55257C29.1879 5.33247 32.4245 4.58163 35.846 4.11236C40.4696 3.45538 45.0932 4.20622 49.7169 4.48778C49.9943 4.48778 50.2717 4.67549 50.5491 4.67549C51.4738 4.86319 52.3986 5.14476 53.3233 5.23861C54.9878 5.52017 56.5598 6.0833 58.0394 6.92799C60.8136 8.61736 63.4953 10.3067 66.2695 11.9023C69.9684 14.0609 72.9275 17.0642 75.1468 20.8184C75.3318 21.1 75.5167 21.4754 75.7941 21.6631C76.5339 22.2262 76.9963 23.1648 77.4586 23.9156C78.0135 24.7603 78.6608 25.605 79.1231 26.4497C79.5855 27.2005 79.8629 28.0452 80.2328 28.796C80.4178 29.2653 80.5102 29.8284 80.6952 30.2977C82.1747 34.4273 83.007 38.6507 82.4522 43.0618C82.4522 43.2495 82.3597 43.5311 82.3597 43.7188C82.2672 46.3467 81.9898 48.9747 81.6199 51.6026C81.0651 55.4506 79.8629 59.017 78.2909 62.5835C77.4586 64.4606 76.5339 66.2438 76.0715 68.3086C75.9791 68.7779 75.7941 69.341 75.4242 69.6226C73.9447 70.8427 72.9275 72.5321 72.0952 74.1276C71.8178 74.5968 71.3554 75.0661 70.9856 75.5354C70.7081 75.9108 70.6157 76.2862 70.3382 76.6616C70.6157 76.8493 70.7081 77.037 70.8931 77.1309C72.0028 77.4125 73.1124 77.7879 74.2221 77.9756C74.6845 78.0694 75.3318 77.8817 75.6092 77.6002C76.349 76.9432 76.9963 76.2862 77.4586 75.4415C78.2909 74.0337 78.9382 72.5321 79.5855 71.1242C79.8629 70.5611 79.9554 69.9041 80.1403 69.2472C80.2328 68.5902 80.5102 68.027 80.9726 67.5578C81.435 67.0885 81.9898 66.5254 82.0823 65.9623C82.3597 64.6483 83.1919 63.522 83.5618 62.3019C84.2091 60.2372 84.8564 58.0785 85.3188 56.0137C85.5038 55.3567 85.5962 54.6998 85.6887 54.0428C85.8736 52.9165 86.0586 51.6964 86.1511 50.5702C86.2435 50.1948 86.2435 49.8193 86.2435 49.4439C86.336 48.3177 86.521 47.2853 86.6134 46.159C86.9833 44.2819 87.1683 42.311 86.7984 40.3401Z" fill="#B94B27"/>
</svg>
