<svg width="23" height="20" viewBox="0 0 23 20" fill="none" xmlns="http://www.w3.org/2000/svg">
<path d="M22.4953 10.3436C22.4714 10.2714 22.5193 10.1992 22.5193 10.127C22.5193 9.95856 22.5193 9.79011 22.4953 9.62165C22.3995 9.04409 22.2796 8.46653 22.1598 7.91303C22.1358 7.81677 22.1119 7.74457 22.0639 7.64831C21.9681 7.38359 21.8962 7.11887 21.7524 6.85416C21.6325 6.61351 21.4408 6.39692 21.2731 6.15627C21.2491 6.1322 21.2251 6.08407 21.2251 6.06001C21.0813 5.74716 20.8656 5.48244 20.5781 5.28992C20.3863 5.14553 20.2186 4.95301 20.1706 4.68829C20.1227 4.44764 19.9789 4.27918 19.8351 4.11073C19.4517 3.60536 18.9963 3.14812 18.4451 2.81121C18.3492 2.76308 18.2773 2.66682 18.1815 2.59462C17.8699 2.35397 17.5583 2.11332 17.1749 1.99299C16.8873 1.89673 16.6476 1.75234 16.408 1.53576C15.9287 1.12665 15.4014 0.837865 14.7543 0.789735C14.299 0.741604 13.8197 0.645344 13.3883 0.452822C12.909 0.236236 12.4296 0.139975 11.9264 0.0918446C11.0636 -0.0284812 10.2248 -0.00441604 9.36201 0.0196491C8.76286 0.0437143 8.21164 0.11591 7.63646 0.284366C7.03731 0.452822 6.4861 0.741604 5.91092 1.00632C5.31177 1.27104 4.76055 1.55982 4.28124 1.99299C4.2333 2.04112 4.16141 2.08925 4.11347 2.13738C3.68209 2.4021 3.29863 2.73901 3.03501 3.19625C3.01104 3.24438 2.96311 3.29251 2.91518 3.31658C2.34 3.77382 2.07637 4.47171 1.62102 5.0252C1.57309 5.07334 1.57309 5.1696 1.54912 5.24179C1.50119 5.43431 1.40533 5.5787 1.26153 5.72309C1.04584 5.91562 0.92601 6.18033 0.878078 6.46911C0.854112 6.63757 0.758248 6.83009 0.662385 6.97448C0.542555 7.19107 0.446692 7.43172 0.470657 7.67237C0.494623 7.81676 0.470657 7.93709 0.39876 8.05742C0.230998 8.32213 0.159101 8.58685 0.254964 8.92376C0.27893 9.04409 0.254964 9.18848 0.183067 9.30881C0.0392712 9.54946 0.0392712 9.76604 0.111169 10.0067C0.135135 10.103 0.135135 10.2473 0.087203 10.3436C-0.0326265 10.6083 -0.00866057 10.8971 0.0392712 11.1859C0.087203 11.4025 0.087203 11.6431 0.159101 11.8597C0.326862 12.317 0.518589 12.7742 0.686351 13.2074C0.734282 13.1833 0.782214 13.2074 0.80618 13.2314C0.997907 13.448 1.1417 13.6887 1.2136 13.9534C1.23757 14.0496 1.2855 14.194 1.3574 14.2422C1.64499 14.4347 1.74085 14.7475 1.88465 15.0123C2.05241 15.301 2.24413 15.5417 2.50776 15.7342C2.65155 15.8305 2.74742 15.9749 2.84328 16.0952C3.05897 16.3358 3.2507 16.6246 3.53829 16.7449C3.87382 16.8893 4.13744 17.13 4.40107 17.3706C4.61676 17.5872 4.88038 17.7316 5.19194 17.7797C5.47953 17.8279 5.74316 17.9241 6.00678 17.9963C6.46213 18.1407 6.94145 18.3092 7.3968 18.4536C7.73233 18.5498 8.09181 18.6461 8.4513 18.6702C9.52977 18.6942 10.6322 18.7905 11.7346 18.6942C12.2619 18.6461 12.6933 18.4776 13.0528 18.1167C13.3643 17.8038 13.6998 17.6354 14.1073 17.491C14.4667 17.3706 14.8023 17.1781 15.018 16.8653C15.1857 16.6246 15.3774 16.4321 15.6411 16.3118C15.8568 16.1914 16.0245 16.023 16.1204 15.7823C16.1923 15.5176 16.384 15.3251 16.5757 15.1566C16.7435 15.0123 16.8633 14.8197 16.9113 14.5791C16.9592 14.2903 17.079 14.0496 17.3187 13.8571C17.4625 13.7368 17.5104 13.5443 17.5583 13.3518C17.6063 13.1592 17.6302 12.9426 17.7021 12.7501C17.8939 12.2207 18.0137 11.6913 18.0137 11.1618C18.0377 9.81417 17.822 8.49059 17.0071 7.33546C16.9832 7.28733 16.9352 7.2392 16.9113 7.19107C16.7914 6.83009 16.5278 6.61351 16.2163 6.39692C16.0485 6.27659 15.8568 6.15627 15.7609 5.98781C15.5692 5.69903 15.3295 5.53057 15.018 5.41025C14.6824 5.28992 14.3948 5.12147 14.1552 4.90488C13.8436 4.6161 13.4841 4.44764 13.0767 4.30325C12.7891 4.20699 12.5255 4.08666 12.2619 3.94227C11.6148 3.55723 10.8719 3.48503 10.1529 3.41284C10.1049 3.41284 10.081 3.41284 10.0331 3.41284C9.60167 3.5091 9.14631 3.60536 8.71493 3.84601C8.47527 3.9904 8.23561 4.13479 7.97198 4.23105C7.06128 4.56797 6.4861 5.28992 5.79109 5.89155C5.71919 5.96375 5.67126 6.08407 5.59936 6.18033C5.4316 6.42098 5.23987 6.66164 5.07211 6.90229C4.97625 7.04668 4.90435 7.19107 4.83245 7.33546C4.73659 7.55205 4.64072 7.7927 4.5209 8.00929C4.47296 8.12961 4.3771 8.24994 4.35313 8.37026C4.25727 8.87563 4.04158 9.381 4.18537 9.9345C4.20934 10.0308 4.18537 10.127 4.18537 10.2233C4.11347 10.7527 4.2333 11.2822 4.35313 11.7875C4.54486 12.5576 4.97625 13.2074 5.47953 13.7849C5.67126 14.0015 5.88695 14.17 6.15058 14.2903C6.46213 14.4347 6.74972 14.6272 7.03731 14.7957C7.42077 15.0123 7.80422 15.2048 8.25958 15.2048C8.95459 15.2048 9.6496 15.2048 10.3446 15.2048C10.752 15.2048 11.0636 15.0363 11.3991 14.8438C12.2379 14.2903 12.7652 13.448 13.3883 12.702C13.4122 12.6539 13.4362 12.6057 13.4602 12.5576C13.9395 11.4506 13.9635 10.3195 13.6519 9.16441C13.6279 9.11628 13.604 9.06815 13.58 9.02002C13.1966 8.32213 12.6933 7.7205 11.9503 7.35953C11.7826 7.28733 11.6148 7.19107 11.471 7.07074C10.9917 6.70977 10.4644 6.56538 9.88926 6.63757C9.40994 6.6857 8.95459 6.78196 8.5232 6.97448C8.30751 7.04668 8.11578 7.167 7.94802 7.3114C7.51663 7.74457 6.86955 8.24994 6.98938 8.85157C7.03731 9.06815 7.06128 9.23661 7.13318 9.4532C7.30094 9.98263 7.44474 10.1511 7.6125 10.3677L7.70836 10.5121C7.80422 10.7046 7.85215 10.7768 7.99595 10.9452C8.11578 11.0896 8.23561 11.1859 8.35544 11.3543C8.28354 11.3543 8.23561 11.3784 8.21164 11.3784C8.01992 11.3543 7.82819 11.3303 7.63646 11.2822C7.49267 11.2581 7.37284 11.21 7.22904 11.234C7.20508 11.3062 7.20508 11.3543 7.20508 11.4265C7.20508 11.5709 7.18111 11.6913 7.18111 11.8356C7.3968 11.9319 7.63646 11.9319 7.85216 11.9078C7.97198 11.9078 8.11578 11.9078 8.23561 11.956C8.47527 12.0763 8.71493 12.1004 8.95459 12.1004C9.12235 12.1004 9.12235 12.1004 9.29011 12.1966C9.40994 12.1485 9.48184 12.0522 9.45787 11.9078C9.40994 11.6672 9.31408 11.4265 9.33804 11.1859C9.29011 11.0415 9.31408 10.8971 9.31408 10.7527C9.33804 10.5602 9.31408 10.3436 9.24218 10.1511C9.19425 10.0548 9.12235 9.95856 9.02648 9.91043C8.90666 9.83824 8.81079 9.91043 8.81079 10.0548C8.83476 10.3195 8.85872 10.6083 8.85872 10.873C8.85872 10.9934 8.88269 11.1137 8.85872 11.21C8.73889 11.1859 8.69096 11.1137 8.64303 11.0415C8.54717 10.9212 8.49923 10.8008 8.37941 10.7287C8.18768 10.5843 8.09181 10.3917 8.01992 10.1752C7.97198 10.0548 7.92405 9.91044 7.87612 9.79011L7.80422 9.59759C7.75629 9.52539 7.75629 9.42913 7.75629 9.35694C7.73233 9.18848 7.63646 9.06815 7.70836 8.92376C7.85215 8.51465 8.09181 8.17774 8.42734 7.93709C8.88269 7.62424 9.38597 7.52798 9.91322 7.45579C10.4165 7.40766 10.8719 7.52798 11.3032 7.7927C11.5189 7.93709 11.7586 8.03335 11.9743 8.17774C12.19 8.32213 12.4296 8.46653 12.5974 8.65905C13.556 9.71791 13.4841 11.0174 12.7652 12.1726C12.5255 12.5576 12.2379 12.9186 11.9503 13.2555C11.471 13.7849 10.9198 14.2181 10.2008 14.2903C9.24218 14.3866 8.25958 14.4588 7.30094 14.0496C6.72576 13.809 6.22247 13.4961 5.79109 12.9908C5.33574 12.4613 5.07211 11.8838 5.00021 11.21C4.90435 10.488 4.88038 9.79011 5.12004 9.06815C5.45557 8.00929 5.98282 7.09481 6.74972 6.32472C7.18111 5.89155 7.66043 5.50651 8.16371 5.21773C8.667 4.92894 9.24218 4.78455 9.79339 4.59203C10.0091 4.51984 10.2487 4.49577 10.4644 4.51984C10.9677 4.56797 11.471 4.6161 11.9743 4.71236C12.4296 4.78455 12.8371 5.00114 13.2205 5.24179C13.5081 5.43431 13.8197 5.6509 14.1312 5.81936C14.6345 6.08407 15.1378 6.32472 15.5212 6.7579C15.5692 6.80603 15.6171 6.83009 15.665 6.85416C16.1683 7.2392 16.5518 7.7205 16.8154 8.29807C17.4146 9.62165 17.3906 10.9693 17.0311 12.341C16.8154 13.1352 16.408 13.8571 15.9766 14.5309C15.6171 15.1085 15.1857 15.662 14.6105 16.1192C14.1552 16.4802 13.7238 16.8171 13.1966 17.0578C12.9809 17.1541 12.7891 17.2744 12.5974 17.3706C12.2619 17.5632 11.8784 17.6835 11.471 17.7316C10.3686 17.876 9.29011 17.7076 8.21164 17.6594C8.13975 17.6594 8.06785 17.6113 7.99595 17.6113C7.51663 17.5391 7.03731 17.4428 6.558 17.3706C6.03075 17.2744 5.55143 17.0819 5.12004 16.769C4.80849 16.5524 4.49693 16.3358 4.18537 16.1433C4.04158 16.0471 3.89778 15.9749 3.77795 15.8545C3.4664 15.5417 3.15484 15.2048 2.84328 14.8679C2.72345 14.7235 2.60362 14.5791 2.50776 14.4106C2.4119 14.2903 2.34 14.1459 2.24413 14.0496C1.81275 13.5924 1.52516 13.0389 1.2855 12.4613C1.04584 11.9078 0.949976 11.3062 0.949976 10.6805C0.902044 9.62165 1.11774 8.58685 1.45326 7.57611C1.59705 7.14294 1.76482 6.70977 2.00448 6.34879C2.45983 5.62683 2.93915 4.92894 3.41846 4.23105C3.49036 4.11073 3.58622 4.01447 3.68209 3.91821C3.94571 3.65349 4.20934 3.38877 4.49693 3.12406C4.66469 2.9556 4.88038 2.81121 5.07211 2.66682C5.45557 2.4021 5.83902 2.16145 6.22247 1.94486C6.39024 1.8486 6.558 1.75234 6.72576 1.68015C7.56456 1.3673 8.40337 1.17478 9.29011 1.05445C10.4884 0.885995 11.6867 1.07852 12.885 1.15071C12.9569 1.15071 13.0288 1.19884 13.1007 1.19884C13.3403 1.24697 13.58 1.31917 13.8197 1.34323C14.2511 1.41543 14.6585 1.55982 15.0419 1.77641C15.7609 2.20958 16.4559 2.64275 17.1749 3.05186C18.1335 3.60536 18.9004 4.37545 19.4756 5.33805C19.5236 5.41025 19.5715 5.50651 19.6434 5.55464C19.8351 5.69903 19.9549 5.93968 20.0748 6.1322C20.2186 6.34879 20.3863 6.56538 20.5062 6.78196C20.626 6.97448 20.6979 7.19107 20.7937 7.38359C20.8417 7.50392 20.8656 7.64831 20.9136 7.76863C21.297 8.8275 21.5127 9.91043 21.3689 11.0415C21.3689 11.0896 21.345 11.1618 21.345 11.21C21.321 11.8838 21.2491 12.5576 21.1532 13.2314C21.0094 14.2181 20.6979 15.1326 20.2905 16.0471C20.0748 16.5284 19.8351 16.9856 19.7153 17.515C19.6913 17.6354 19.6434 17.7797 19.5475 17.8519C19.1641 18.1648 18.9004 18.598 18.6847 19.0071C18.6128 19.1274 18.493 19.2477 18.3972 19.368C18.3253 19.4643 18.3013 19.5606 18.2294 19.6568C18.3013 19.705 18.3253 19.7531 18.3732 19.7772C18.6608 19.8493 18.9484 19.9456 19.236 19.9937C19.3558 20.0178 19.5236 19.9697 19.5954 19.8975C19.7872 19.729 19.9549 19.5606 20.0748 19.344C20.2905 18.983 20.4582 18.598 20.626 18.237C20.6979 18.0926 20.7218 17.9241 20.7698 17.7557C20.7937 17.5872 20.8656 17.4428 20.9855 17.3225C21.1053 17.2022 21.2491 17.0578 21.2731 16.9134C21.345 16.5765 21.5607 16.2877 21.6565 15.9749C21.8243 15.4454 21.992 14.8919 22.1119 14.3625C22.1598 14.194 22.1838 14.0256 22.2077 13.8571C22.2557 13.5683 22.3036 13.2555 22.3276 12.9667C22.3515 12.8705 22.3515 12.7742 22.3515 12.6779C22.3755 12.3891 22.4234 12.1244 22.4474 11.8356C22.5433 11.3543 22.5912 10.849 22.4953 10.3436Z" fill="#251D16"/>
</svg>
