<svg width="243" height="40" viewBox="0 0 243 40" fill="none" xmlns="http://www.w3.org/2000/svg">
<path d="M107.029 6.52426C107.41 6.46734 107.791 6.42793 108.168 6.40166C108.544 6.37538 108.934 6.40166 109.315 6.40166H110.471C110.659 5.81928 110.471 5.78862 110.497 5.17559C110.523 4.56257 110.497 4.56257 110.497 3.94955C110.497 3.33652 110.536 3.33652 110.545 2.71912C110.554 2.10171 110.523 2.10171 110.545 1.48869C110.567 0.875658 110.755 0.836246 110.545 0.253871C110.107 0.253871 109.669 0.231977 109.232 0.253871C108.794 0.275765 108.356 0.337068 107.918 0.36334C107.48 0.389613 107.042 0.363346 106.604 0.437785C106.166 0.512224 105.729 0.534115 105.291 0.626069C104.853 0.718023 104.415 0.840623 103.977 0.963228C103.539 1.08583 103.101 1.23033 102.703 1.4011C102.304 1.57188 101.88 1.76454 101.477 1.94845C101.074 2.13236 100.654 2.30751 100.264 2.52207C99.8742 2.73663 99.4976 2.95994 99.1254 3.22267C98.7532 3.4854 98.3635 3.69558 98.0088 3.96707C97.6542 4.23855 97.3082 4.52755 96.9755 4.84282C96.6427 5.15809 96.3362 5.4646 96.0253 5.78863C95.7144 6.11266 95.4517 6.46734 95.1495 6.81326C94.8474 7.15918 94.5365 7.46132 94.2738 7.82475C94.011 8.18819 93.7834 8.57351 93.5469 8.95447C93.3105 9.33542 93.0871 9.72076 92.8813 10.1148C92.6755 10.5089 92.4872 10.9162 92.3077 11.3278C92.1282 11.7394 91.9924 12.1641 91.8436 12.5845C91.6947 13.0048 91.5064 13.4121 91.4057 13.8455C91.305 14.279 91.1736 14.7213 91.0773 15.1592C90.9809 15.5971 90.9722 16.0349 90.9021 16.4728C90.8321 16.9107 90.7839 17.3486 90.7445 17.7864C90.7051 18.2243 90.67 18.7103 90.6569 19.1657C90.6438 19.6211 90.6131 20.0897 90.6263 20.545C90.6394 21.0004 90.6263 21.4777 90.6832 21.9287C90.7401 22.3797 90.8189 22.8483 90.8933 23.2993C90.9678 23.7503 91.0817 24.2013 91.1867 24.6479C91.2918 25.0946 91.4232 25.5237 91.5633 25.9616C91.7034 26.3994 91.8479 26.8373 92.0012 27.2752C92.1544 27.7131 92.3865 28.1115 92.5967 28.5232C92.8069 28.9348 93.0346 29.3332 93.2667 29.7273C93.4987 30.1214 93.7571 30.498 94.0286 30.8745C94.3 31.2511 94.5584 31.6233 94.8561 31.978C95.1539 32.3327 95.456 32.6698 95.7801 33.0026C96.1041 33.3354 96.4018 33.6813 96.7434 33.9966C97.0849 34.3119 97.4484 34.579 97.8118 34.8724C98.1752 35.1657 98.5168 35.4547 98.8977 35.7481C99.2787 36.0415 99.6596 36.2561 100.054 36.51C100.448 36.764 100.838 37.0136 101.227 37.2281C101.617 37.4427 102.059 37.6441 102.466 37.8324C102.874 38.0207 103.342 38.1871 103.745 38.336C104.148 38.4848 104.621 38.6206 105.059 38.7344C105.497 38.8483 105.934 38.9621 106.372 39.0409C106.81 39.1198 107.27 39.2073 107.73 39.2555C108.189 39.3037 108.636 39.3387 109.1 39.3562C109.564 39.3737 109.976 39.3299 110.44 39.3256C110.659 38.7563 110.497 38.73 110.497 38.1214C110.497 37.5128 110.497 37.5084 110.497 36.8953C110.497 36.2823 110.462 36.2823 110.462 35.6693C110.462 35.0563 110.462 35.0563 110.462 34.4389C110.462 33.8215 110.69 33.782 110.493 33.1997C110.081 33.1997 109.617 33.2303 109.223 33.1997C108.829 33.169 108.4 33.1209 107.984 33.0858C107.568 33.0508 107.108 33.0158 106.67 32.937C106.235 32.8449 105.805 32.7294 105.383 32.591C104.959 32.4555 104.544 32.2962 104.139 32.1137C103.728 31.945 103.327 31.752 102.939 31.5357C102.559 31.3059 102.192 31.0545 101.84 30.7826C101.475 30.531 101.124 30.2591 100.789 29.9681C100.465 29.666 100.176 29.3245 99.883 28.9917C99.6003 28.6496 99.3358 28.293 99.0904 27.9233C98.8176 27.5728 98.5647 27.2074 98.3329 26.8286C98.1258 26.4354 97.9387 26.0321 97.7724 25.62C97.5972 25.2128 97.4309 24.8012 97.2907 24.3765C97.1506 23.9517 97.0674 23.5226 96.9667 23.0891C96.866 22.6556 96.774 22.2134 96.7171 21.7755C96.6602 21.3376 96.6252 20.8997 96.6077 20.4618C96.5901 20.024 96.5551 19.5467 96.577 19.0957C96.5989 18.6447 96.6821 18.1893 96.739 17.7426C96.7959 17.296 96.9054 16.845 97.0061 16.4071C97.1068 15.9692 97.225 15.5314 97.3652 15.0935C97.5053 14.6556 97.641 14.2177 97.803 13.8149C97.9651 13.412 98.1621 12.9742 98.381 12.5801C98.6182 12.1933 98.8755 11.8191 99.1517 11.4591C99.6576 10.7054 100.258 10.0197 100.938 9.41861C101.619 8.81806 102.371 8.30201 103.176 7.88168C103.578 7.67252 103.991 7.48683 104.415 7.32557C104.835 7.1554 105.265 7.0092 105.702 6.88769C106.135 6.77427 105.974 6.77111 106.416 6.70367" fill="white"/>
<path d="M153.607 19.6439C153.607 19.2061 153.585 18.7682 153.585 18.3303C153.585 17.8924 153.585 17.4546 153.585 17.0167C153.585 16.5788 153.585 16.1409 153.585 15.6812C153.585 15.2214 153.585 14.8054 153.585 14.3675C153.585 13.9297 153.585 13.4918 153.585 13.032C153.585 12.5722 153.633 12.1563 153.633 11.6965C153.633 11.2367 153.633 10.8207 153.633 10.3829C153.633 9.94499 153.633 9.50712 153.633 9.04735C153.633 8.58758 153.633 8.1716 153.633 7.73372C153.633 7.29585 153.633 6.85797 153.633 6.42009C153.633 5.98222 153.686 5.54433 153.686 5.08457C153.686 4.6248 153.642 4.20881 153.642 3.77094C153.642 3.33306 153.642 2.89519 153.642 2.43542C153.642 1.97565 153.686 1.55966 153.686 1.09989C153.686 0.504379 153.519 0.263554 152.875 0.285448C152.372 0.285448 151.868 0.3555 151.36 0.359879C150.852 0.364258 150.349 0.359884 149.845 0.337991C149.342 0.316097 148.834 0.276686 148.33 0.267929C147.827 0.259171 147.66 0.412431 147.66 0.955397C147.66 1.39327 147.625 1.85304 147.63 2.30405C147.634 2.75506 147.63 3.2017 147.63 3.64833C147.63 4.09497 147.63 4.55036 147.63 4.997C147.63 5.44363 147.66 5.89464 147.66 6.34565C147.66 6.79666 147.621 7.22141 147.621 7.68993C147.621 8.15846 147.691 8.59195 147.691 9.03858C147.691 9.48522 147.691 9.93624 147.691 10.3873C147.691 10.8383 147.647 11.2849 147.647 11.7315V14.4288C147.647 14.8667 147.647 15.3265 147.647 15.7731C147.647 16.2198 147.603 16.6708 147.603 17.1218C147.603 17.5728 147.643 18.0194 147.643 18.4704C147.643 18.9214 147.643 19.3681 147.643 19.8147C147.643 20.2614 147.617 20.7124 147.617 21.1634C147.617 21.6144 147.647 22.061 147.647 22.5077C147.647 22.9543 147.612 23.4097 147.612 23.8563C147.612 24.3029 147.652 24.7321 147.652 25.205C147.652 25.6779 147.652 26.1026 147.652 26.5493C147.652 26.9959 147.595 27.4469 147.595 27.8979C147.595 28.3489 147.643 28.7955 147.643 29.2466C147.643 29.6976 147.586 30.1442 147.586 30.5908C147.586 31.0375 147.586 31.4666 147.586 31.9395C147.586 32.4124 147.621 32.8371 147.621 33.2882C147.621 33.7392 147.595 34.1858 147.595 34.6324C147.595 35.0791 147.595 35.5301 147.595 35.9811C147.595 36.4321 147.595 36.8569 147.595 37.3298C147.595 37.8027 147.595 38.2274 147.595 38.674C147.595 39.1207 147.735 39.344 148.234 39.3352C148.733 39.3265 149.259 39.2958 149.771 39.2914C150.283 39.2871 150.8 39.2433 151.312 39.2477C151.825 39.252 152.341 39.2871 152.854 39.3046C153.493 39.3046 153.642 39.1294 153.642 38.5252C153.642 38.0873 153.602 37.6494 153.602 37.1853C153.602 36.7211 153.642 36.3095 153.642 35.8454C153.642 35.3812 153.598 34.9696 153.598 34.5055C153.598 34.0413 153.651 33.6297 153.651 33.1656C153.651 32.7014 153.611 32.2898 153.611 31.8257C153.611 31.3615 153.611 30.9499 153.611 30.4901C153.611 30.0304 153.611 29.6144 153.611 29.1502C153.611 28.6861 153.611 28.2745 153.611 27.8103C153.611 27.3462 153.559 26.9346 153.559 26.4704C153.559 26.0063 153.602 25.5947 153.602 25.1305C153.602 24.6664 153.629 24.2548 153.629 23.7906C153.629 23.3265 153.58 22.9149 153.58 22.4551C153.58 21.9953 153.58 21.5794 153.58 21.1152C153.58 20.6511 153.58 20.2395 153.58 19.7753" fill="white"/>
<path d="M140.177 33.6667C140.177 33.1719 140.134 32.9924 139.823 32.9924H138.487H137.174C136.736 32.9924 136.298 33.0143 135.838 33.0143C135.378 33.0143 134.962 32.9486 134.524 32.953C134.087 32.9574 133.649 33.0099 133.211 33.0099C132.773 33.0099 132.335 32.9442 131.875 32.9442H130.562C130.124 32.9442 129.686 32.988 129.226 32.988C128.766 32.988 128.35 32.9399 127.912 32.9399C127.475 32.9399 127.037 32.9837 126.599 32.9793C126.161 32.9749 125.723 32.9574 125.263 32.9574H123.95C123.95 32.5195 123.95 32.0816 123.95 31.6437C123.95 31.2059 123.98 30.768 123.98 30.3082C123.98 29.8485 123.98 29.4325 123.98 28.9683C123.98 28.5042 123.98 28.0926 123.98 27.6328C123.98 27.173 123.98 26.7571 123.98 26.2929C123.98 25.8288 124.02 25.4172 124.02 24.9793C124.02 24.5414 123.998 24.1035 123.998 23.6394C123.998 23.1752 123.998 22.7636 123.998 22.3039V20.964C123.998 20.5261 123.998 20.0882 123.998 19.6284C123.998 19.1687 123.963 18.7527 123.963 18.2885C123.963 17.8244 124.02 17.4128 124.02 16.953C124.02 16.4932 123.967 16.0773 123.967 15.6131C123.967 15.149 123.967 14.7374 123.967 14.2995C123.967 13.8616 123.998 13.4237 123.998 12.9596C123.998 12.4954 123.998 12.0838 123.998 11.6241V10.2885C123.998 9.85067 123.998 9.41279 123.998 8.94864C123.998 8.48449 123.998 8.07289 123.998 7.61312C123.998 7.15335 123.963 6.73736 123.963 6.27321C123.963 5.80906 123.937 5.39746 123.937 4.95958C123.937 4.52171 123.937 4.08383 123.937 3.61968C123.937 3.15554 123.963 2.74394 123.963 2.28417C123.963 1.8244 123.963 1.40842 123.963 0.944268C123.963 0.48012 123.853 0.291832 123.359 0.30059C122.864 0.309347 122.338 0.30059 121.83 0.30059C121.322 0.30059 120.81 0.326862 120.302 0.30059C119.794 0.274317 119.286 0.261183 118.778 0.248047C118.143 0.248047 117.977 0.466983 117.981 1.06687C117.981 1.50475 118.012 1.94262 118.012 2.3805C118.012 2.81838 118.012 3.25625 118.012 3.69413C118.012 4.132 117.977 4.56988 117.981 5.00776C117.986 5.44563 117.981 5.88351 117.981 6.32138C117.981 6.75926 117.981 7.19714 117.981 7.63501C117.981 8.07289 117.981 8.51077 117.981 8.94864C117.981 9.38652 117.981 9.82439 117.981 10.2623C117.981 10.7001 117.981 11.138 117.981 11.5759C117.981 12.0138 117.981 12.4516 117.981 12.8895C117.981 13.3274 118.003 13.7653 118.003 14.2032V15.5168C118.003 15.9547 118.003 16.3925 118.003 16.8304C118.003 17.2683 117.942 17.7062 117.942 18.144C117.942 18.5819 118.003 19.0198 118.003 19.4577C118.003 19.8955 117.977 20.3816 117.977 20.8414C117.977 21.3011 118.003 21.7653 118.003 22.225C118.003 22.6848 117.946 23.149 117.946 23.6087C117.946 24.0685 117.99 24.5326 117.986 24.9924C117.981 25.4522 117.938 25.9163 117.938 26.3761C117.938 26.8359 117.938 27.3 117.938 27.7598C117.938 28.2196 117.986 28.6837 117.986 29.1435C117.986 29.6033 117.951 30.0674 117.951 30.5272C117.951 30.9869 117.951 31.4511 117.951 31.9109C117.951 32.3706 117.951 32.8348 117.951 33.2946C117.951 33.3515 117.951 33.4128 117.951 33.4828C117.951 33.6624 118.003 33.8419 118.008 34.0214C118.008 34.4593 117.955 34.8972 117.955 35.3351C117.955 35.7729 117.955 36.2108 117.955 36.6487C117.955 37.0866 117.933 37.5244 117.933 37.9623C117.931 38.0032 117.931 38.0441 117.933 38.0849C117.933 38.7155 118.056 38.8293 118.402 38.8293C118.84 38.8293 119.299 38.8818 119.746 38.8775C120.193 38.8731 120.622 38.8074 121.09 38.8074C121.559 38.8074 121.988 38.8687 122.435 38.8687C122.881 38.8687 123.31 38.8205 123.779 38.8205H125.119C125.557 38.8205 125.995 38.86 126.463 38.86H127.807H129.152C129.59 38.86 130.027 38.8862 130.465 38.8862C130.903 38.8862 131.341 38.8862 131.805 38.8862H134.481C134.919 38.8862 135.356 38.8512 135.821 38.8512H137.134C137.572 38.8512 138.01 38.8512 138.474 38.8512C138.938 38.8512 139.35 38.8512 139.788 38.8731C140.134 38.8731 140.252 38.7373 140.226 38.1024C140.226 37.5989 140.199 37.0997 140.195 36.5961C140.191 36.0926 140.252 35.5978 140.256 35.0942C140.261 34.5907 140.177 34.5731 140.177 34.074" fill="white"/>
<path d="M242.198 22.3374C242.376 22.3374 242.503 22.2496 242.503 21.812C242.503 21.3128 242.503 20.8092 242.503 20.3057C242.503 19.8021 242.481 19.303 242.503 18.8038C242.525 18.3046 242.503 17.7967 242.503 17.2975C242.503 16.7983 242.455 16.6013 242.144 16.6013H240.83C240.392 16.6013 239.954 16.645 239.495 16.645C239.035 16.645 238.619 16.6013 238.181 16.6013C237.743 16.6013 237.305 16.6013 236.867 16.6013C236.429 16.6013 235.992 16.5575 235.527 16.5575C235.063 16.5575 234.652 16.6056 234.214 16.6056C233.776 16.6056 233.338 16.5662 232.878 16.5662H231.565C231.127 16.5662 230.689 16.5662 230.251 16.5662C229.813 16.5662 229.375 16.5881 228.911 16.5881C228.447 16.5881 228.035 16.5575 227.597 16.5575C227.16 16.5575 226.722 16.5575 226.258 16.5575C226.258 16.1196 226.258 15.6817 226.258 15.2438C226.258 14.806 226.284 14.3681 226.284 13.9302C226.284 13.4923 226.31 13.0545 226.31 12.6166C226.31 12.1787 226.31 11.7408 226.31 11.303C226.31 10.8651 226.244 10.4272 226.244 9.98933C226.244 9.55145 226.31 9.11358 226.31 8.6757C226.31 8.23783 226.244 7.79995 226.244 7.36207C226.244 6.9242 226.288 6.48632 226.288 6.04845C226.726 6.04845 227.164 6.02217 227.602 6.02217H228.915H230.229C230.667 6.02217 231.105 6.04845 231.543 6.04845C231.981 6.04845 232.418 6.04845 232.856 6.04845C233.294 6.04845 233.732 6.0791 234.196 6.0791H235.536H236.876C237.314 6.0791 237.752 6.03531 238.19 6.03531H240.869C241.307 6.03531 241.745 6.07472 242.205 6.07472C242.551 6.07472 242.643 5.9346 242.643 5.2953C242.643 4.79174 242.643 4.28818 242.643 3.789C242.643 3.28983 242.608 2.78189 242.608 2.28271C242.608 1.78353 242.643 1.27559 242.647 0.776415C242.652 0.277236 242.59 0.110848 242.279 0.110848C241.842 0.110848 241.377 0.0670576 240.926 0.0670576C240.475 0.0670576 240.02 0.0670576 239.569 0.0670576C239.118 0.0670576 238.663 0.0670576 238.212 0.0670576H236.854H235.497C235.059 0.0670576 234.59 0.141489 234.139 0.141489C233.688 0.141489 233.233 0.0977121 232.782 0.0977121H231.424H230.067H228.71C228.272 0.0977121 227.808 0.0626745 227.352 0.0626745C226.897 0.0626745 226.446 0.106465 225.995 0.106465C225.837 0.0284502 225.662 -0.0077352 225.487 0.00137883C224.988 0.00137883 224.484 0.00137883 223.985 0.00137883C223.486 0.00137883 222.978 0.0407818 222.479 0.036403H220.972C220.882 0.0238961 220.789 0.0294516 220.7 0.0527459C220.612 0.0760401 220.529 0.116613 220.456 0.172144C220.41 0.205178 220.373 0.248682 220.348 0.298984C220.323 0.349287 220.31 0.40491 220.311 0.461143C220.311 0.487416 220.311 0.513685 220.311 0.539958C220.311 0.579367 220.311 0.618775 220.311 0.662563C220.311 1.10044 220.311 1.53831 220.311 1.97619C220.311 2.41407 220.259 2.85194 220.259 3.28982C220.259 3.72769 220.285 4.16557 220.285 4.60345C220.285 5.04132 220.285 5.4792 220.285 5.91708C220.285 6.35495 220.285 6.79283 220.285 7.2307C220.285 7.66858 220.285 8.10646 220.285 8.54433V9.85796C220.285 10.2958 220.316 10.7337 220.316 11.1716C220.316 11.6095 220.316 12.0473 220.316 12.4852C220.316 12.9231 220.267 13.361 220.267 13.7988C220.267 14.2367 220.267 14.6746 220.267 15.1125C220.267 15.5503 220.324 15.9882 220.324 16.4261C220.324 16.864 220.259 17.3019 220.259 17.7397C220.259 18.1776 220.259 18.6155 220.259 19.0534C220.259 19.4912 220.285 19.9291 220.285 20.367C220.285 20.8049 220.285 21.2427 220.285 21.6806C220.285 21.6806 220.285 21.6806 220.285 21.7069C220.285 21.7332 220.285 21.7069 220.285 21.7332C220.285 22.171 220.254 22.6308 220.259 23.0818C220.263 23.5328 220.259 23.9838 220.259 24.4349C220.259 24.8859 220.281 25.3369 220.281 25.7835C220.281 26.2302 220.241 26.6855 220.241 27.1366C220.241 27.5876 220.241 28.0386 220.241 28.4896C220.241 28.9406 220.281 29.3653 220.281 29.8382C220.281 30.3112 220.224 30.7403 220.224 31.1913C220.224 31.6423 220.285 32.0889 220.285 32.5399C220.285 32.991 220.237 33.442 220.237 33.893C220.237 34.344 220.237 34.795 220.237 35.2416C220.237 35.6883 220.267 36.1437 220.267 36.5947C220.267 37.0457 220.237 37.4967 220.237 37.9477C220.237 37.9871 220.237 38.0265 220.237 38.0659C220.237 38.1054 220.237 38.0841 220.237 38.1192C220.237 38.1542 220.215 38.1666 220.215 38.1973C220.215 38.1973 220.215 38.2805 220.215 38.3111C220.215 38.3418 220.215 38.3637 220.215 38.3856C220.254 38.7403 220.416 38.8235 220.692 38.8235H222.032C222.47 38.8235 222.908 38.7709 223.346 38.7709H224.686C224.931 38.7709 225.18 38.8016 225.426 38.8103C225.518 38.8108 225.61 38.8035 225.701 38.7884C226.179 38.7884 226.656 38.8235 227.133 38.8235C227.611 38.8235 228.088 38.8235 228.561 38.8235H231.354C231.792 38.8235 232.23 38.784 232.668 38.784C233.106 38.784 233.544 38.8191 234.008 38.8191H235.348C235.786 38.8191 236.224 38.7797 236.688 38.7797C237.152 38.7797 237.563 38.7797 238.001 38.7797H239.341C239.779 38.7797 240.217 38.7797 240.681 38.7797H242.017C242.363 38.7797 242.52 38.6614 242.507 38.0222C242.507 37.5186 242.507 37.0194 242.507 36.5159C242.507 36.0123 242.507 35.5131 242.507 35.0096C242.507 34.506 242.459 34.0068 242.463 33.5033C242.468 32.9997 242.428 32.8289 242.117 32.8289C241.68 32.8289 241.242 32.7939 240.804 32.7939C240.366 32.7939 239.928 32.8552 239.468 32.8552C239.008 32.8552 238.593 32.8114 238.155 32.8114C237.717 32.8114 237.279 32.8114 236.841 32.8114C236.403 32.8114 235.965 32.8333 235.505 32.8333C235.046 32.8333 234.63 32.8596 234.192 32.8596C233.754 32.8596 233.316 32.807 232.856 32.807C232.397 32.807 231.981 32.8508 231.543 32.8508C231.105 32.8508 230.667 32.8508 230.229 32.8508C229.791 32.8508 229.353 32.8289 228.894 32.8289C228.434 32.8289 228.018 32.8508 227.554 32.8508C227.09 32.8508 226.678 32.7939 226.24 32.7939C226.24 32.356 226.214 31.9532 226.209 31.5241C226.205 31.095 226.209 30.6483 226.209 30.2104C226.209 29.7726 226.209 29.3347 226.209 28.8968C226.209 28.4589 226.174 28.0211 226.174 27.5832C226.174 27.1453 226.231 26.7074 226.231 26.2696C226.231 25.8317 226.231 25.3938 226.231 24.9559C226.231 24.5181 226.231 24.0802 226.231 23.6423C226.231 23.2044 226.231 22.7666 226.231 22.3287C226.669 22.3287 227.107 22.3287 227.545 22.3287C227.983 22.3287 228.421 22.298 228.859 22.298C229.296 22.298 229.734 22.298 230.172 22.298H231.486C231.924 22.298 232.362 22.3506 232.799 22.3462C233.237 22.3418 233.675 22.3462 234.139 22.3462H235.479C235.917 22.3462 236.355 22.3112 236.819 22.3112C237.283 22.3112 237.695 22.3637 238.133 22.3637C238.571 22.3637 239.008 22.3374 239.473 22.3374H241.705" fill="white"/>
<path d="M172.631 6.17891C173.069 6.17891 173.117 6.26649 173.586 6.26649C174.054 6.26649 174.462 6.26649 174.93 6.26649C175.399 6.26649 175.806 6.26649 176.274 6.26649H177.614H178.958C179.396 6.26649 179.834 6.24459 180.303 6.26649H181.643C182.081 6.26649 182.518 6.31027 182.987 6.31465C183.333 6.31465 183.464 6.14825 183.455 5.50896C183.455 5.0054 183.455 4.50185 183.455 3.99829C183.455 3.49473 183.455 2.99117 183.455 2.48761C183.455 1.98406 183.416 1.48049 183.42 0.976935C183.425 0.473378 183.377 0.267578 183.066 0.267578C182.602 0.267578 182.137 0.311368 181.673 0.311368H180.285C179.821 0.311368 179.357 0.267578 178.893 0.267578C178.429 0.267578 177.965 0.267578 177.5 0.267578C177.036 0.267578 176.572 0.324504 176.108 0.324504C175.644 0.324504 175.18 0.324504 174.715 0.324504C174.251 0.324504 173.787 0.324504 173.323 0.324504C172.859 0.324504 172.395 0.346393 171.931 0.346393H170.538C170.074 0.346393 169.61 0.315751 169.15 0.315751C168.69 0.315751 168.222 0.363911 167.758 0.363911C167.293 0.363911 166.829 0.302616 166.365 0.302616C166.316 0.307507 166.268 0.316291 166.221 0.328887C166.177 0.328887 166.137 0.328887 166.094 0.328887H164.911C164.517 0.328887 164.123 0.377047 163.729 0.377047C163.335 0.377047 162.941 0.333257 162.547 0.333257H161.365C161.102 0.333257 160.984 0.460253 160.984 0.920023C160.984 0.946295 160.984 0.972555 160.984 1.00321C160.984 1.48487 160.984 1.97092 160.984 2.45696C160.984 2.943 160.984 3.42467 160.984 3.91071C160.984 4.39675 160.984 4.87842 160.984 5.36008C160.984 5.43014 160.984 5.5002 160.984 5.56588C160.984 5.63156 160.984 5.70601 160.984 5.76293C160.984 6.20081 160.984 6.61678 160.984 7.04152C160.984 7.46626 160.984 7.89101 160.984 8.32013V9.59435C160.984 10.0322 161.01 10.4482 161.01 10.8729C161.01 11.2977 161.01 11.7224 161.01 12.1515C161.01 12.5807 160.971 13.001 160.971 13.4258C160.971 13.8505 160.971 14.2796 160.971 14.7044C160.971 15.1291 161.001 15.5538 161.001 15.9786C161.001 16.4033 161.001 16.8543 161.001 17.2572C161.001 17.3185 160.975 17.3798 160.975 17.4542C160.975 17.752 160.975 18.0497 160.975 18.33C160.975 18.7678 161.027 19.2057 161.027 19.6217C161.027 20.0377 160.971 20.4974 160.971 20.9134C160.971 21.3294 160.997 21.6666 160.971 22.0432C160.966 22.138 160.966 22.233 160.971 22.3278C160.971 22.7657 160.971 23.2298 160.971 23.6808C160.971 24.1318 161.014 24.5872 161.014 25.0382C161.014 25.4892 161.014 25.9403 161.014 26.3913C161.014 26.8423 161.014 27.2933 161.014 27.7443C161.014 28.1953 161.014 28.6507 161.014 29.1017C161.014 29.5527 161.014 30.0037 161.014 30.4548C161.014 30.9058 160.984 31.3568 160.984 31.8078C160.984 32.2588 161.027 32.7142 161.023 33.1652C161.019 33.6162 160.975 34.0672 160.975 34.5182C160.975 34.9693 161.023 35.4203 161.023 35.8757C161.023 36.3311 160.984 36.7777 160.984 37.2287C160.984 37.6797 160.984 38.1307 160.984 38.5817C160.984 39.0327 161.111 39.2123 161.61 39.2035C162.109 39.1948 162.63 39.2035 163.142 39.2035C163.655 39.2035 164.167 39.1816 164.679 39.2035C165.192 39.2254 165.704 39.2035 166.216 39.2035C166.851 39.2254 167.022 39.0327 167.018 38.4285C167.018 37.9906 166.996 37.5527 166.996 37.1148C166.996 36.677 166.996 36.2391 166.996 35.8012C166.996 35.3633 166.939 34.9255 166.939 34.4876C166.939 34.0497 166.996 33.6118 166.996 33.174C166.996 32.7361 166.969 32.2982 166.969 31.8603C166.969 31.4225 166.93 30.9846 166.93 30.5467C166.93 30.1088 166.93 29.671 166.93 29.2331C166.93 28.7952 166.978 28.3573 166.978 27.9194C166.978 27.4816 166.948 27.0437 166.948 26.6058C166.948 26.1679 166.948 25.7301 166.948 25.2922C166.948 24.8543 167.009 24.4164 167.013 23.9786C167.018 23.5407 166.991 23.1028 166.991 22.6649C167.429 22.6649 167.867 22.6255 168.305 22.6299H169.619C170.056 22.6299 170.494 22.6956 170.932 22.6956C171.37 22.6956 171.808 22.6387 172.246 22.6387C172.684 22.6387 173.122 22.7 173.59 22.7C174.059 22.7 174.466 22.6781 174.934 22.6781H176.279C176.717 22.6781 177.154 22.6299 177.619 22.6299H178.963C179.401 22.6299 179.839 22.6737 180.307 22.6737C180.776 22.6737 181.183 22.6474 181.647 22.6518C182.111 22.6562 182.523 22.6956 182.991 22.6956C183.337 22.6956 183.49 22.5423 183.477 21.903C183.477 21.3995 183.42 20.8959 183.416 20.3924C183.412 19.8888 183.416 19.3853 183.416 18.8817C183.416 18.3781 183.473 17.8746 183.477 17.371C183.482 16.8675 183.399 16.6704 183.088 16.6704H181.748C181.31 16.6704 180.872 16.7273 180.408 16.7273C179.944 16.7273 179.532 16.7011 179.068 16.7011C178.604 16.7011 178.192 16.7317 177.728 16.7361C177.264 16.7405 176.852 16.6836 176.384 16.6836C175.915 16.6836 175.508 16.7317 175.044 16.7317H173.704C173.266 16.7317 172.828 16.6923 172.364 16.6923H171.024H169.68C169.242 16.6923 168.804 16.6704 168.34 16.6704C167.876 16.6704 167.429 16.7098 166.983 16.7098C166.983 16.272 166.983 15.8122 166.983 15.3743C166.983 14.9364 167.004 14.4986 167.004 14.0607C167.004 13.6228 167.004 13.1849 167.004 12.747C167.004 12.3092 167.026 11.8713 167.026 11.4334C167.026 10.9955 166.961 10.5577 166.961 10.1198C166.961 9.68191 166.996 9.24404 166.996 8.80616C166.996 8.36829 166.965 7.93041 166.965 7.49253C166.965 7.05466 166.996 6.61678 166.996 6.17891C167.434 6.17891 167.871 6.21831 168.309 6.21831C168.747 6.21831 169.185 6.18767 169.623 6.18767C170.061 6.18767 170.499 6.14825 170.937 6.14825H172.25" fill="white"/>
<path d="M202.311 6.26735C202.749 6.26735 202.819 6.27185 203.266 6.27185C203.712 6.27185 204.141 6.29376 204.61 6.29376H205.95H207.294C207.732 6.29376 208.17 6.24121 208.638 6.24121H209.978C210.416 6.24121 210.876 6.28937 211.322 6.28937C211.769 6.28937 212.198 6.26748 212.667 6.28937C213.013 6.28937 213.166 6.17116 213.157 5.53186C213.157 5.0283 213.078 4.52474 213.078 4.02118C213.078 3.51762 213.109 3.01406 213.113 2.5105C213.118 2.00694 213.113 1.50339 213.113 0.999837C213.113 0.496279 213.074 0.307985 212.763 0.307985C212.299 0.307985 211.835 0.343022 211.371 0.343022C210.906 0.343022 210.442 0.281713 209.978 0.281713C209.514 0.281713 209.024 0.312368 208.586 0.312368C208.148 0.312368 207.662 0.281713 207.198 0.281713H205.805C205.341 0.281713 204.877 0.307985 204.413 0.307985C203.949 0.307985 203.484 0.338639 203.02 0.338639C202.556 0.338639 202.092 0.281713 201.628 0.281713C201.164 0.281713 200.7 0.281713 200.235 0.281713H198.843C198.379 0.281713 197.915 0.338639 197.451 0.338639C196.986 0.338639 196.527 0.277344 196.062 0.277344C196.014 0.277344 195.971 0.277344 195.914 0.277344H195.791H194.215H192.638H191.062C190.799 0.277344 190.699 0.413079 190.699 0.872849C190.699 0.899121 190.699 0.925395 190.699 0.956046C190.699 1.43771 190.699 1.92376 190.699 2.4098C190.699 2.89584 190.659 3.37749 190.659 3.86354C190.659 4.34958 190.659 4.83125 190.659 5.31292C190.659 5.38298 190.659 5.45304 190.659 5.51872C190.665 5.5853 190.677 5.65123 190.694 5.71576C190.694 6.15363 190.646 6.56962 190.646 6.99436C190.646 7.4191 190.694 7.84383 190.699 8.27295C190.703 8.70207 190.699 9.12243 190.699 9.54717C190.699 9.97191 190.742 10.401 190.742 10.8258C190.742 11.2505 190.742 11.6752 190.742 12.1044C190.742 12.5335 190.677 12.9538 190.677 13.3786C190.677 13.8033 190.703 14.2325 190.703 14.6572C190.703 15.0819 190.755 15.5067 190.755 15.9314C190.755 16.3562 190.716 16.8072 190.716 17.21C190.716 17.2713 190.69 17.3326 190.716 17.4071C190.716 17.7048 190.751 18.0026 190.755 18.2828C190.755 18.7207 190.755 19.1585 190.755 19.5745C190.755 19.9905 190.755 20.4503 190.755 20.8663C190.755 21.2823 190.755 21.6194 190.734 21.996C190.734 22.1055 190.734 22.1974 190.734 22.2806C190.734 22.7185 190.69 23.1826 190.69 23.6336V24.9911C190.69 25.4289 190.755 25.8931 190.755 26.3441C190.755 26.7951 190.694 27.2461 190.694 27.6971C190.694 28.1482 190.729 28.6035 190.729 29.0546V30.4076C190.729 30.8455 190.729 31.3096 190.729 31.765C190.729 32.2204 190.729 32.667 190.729 33.118C190.729 33.5691 190.633 34.0288 190.633 34.4667C190.633 34.9046 190.633 35.3687 190.633 35.8241V37.1772C190.633 37.615 190.655 38.0792 190.655 38.5302C190.655 38.9812 190.782 39.1651 191.281 39.1563C191.78 39.1476 192.301 39.1345 192.813 39.1301H194.35C194.863 39.1301 195.375 39.1958 195.883 39.2089C196.518 39.2308 196.675 38.9943 196.671 38.3901C196.671 37.9522 196.671 37.5143 196.671 37.0764C196.671 36.6386 196.64 36.2007 196.64 35.7628C196.64 35.3249 196.671 34.8871 196.671 34.4492C196.671 34.0113 196.671 33.5734 196.671 33.1356V31.8219C196.671 31.384 196.645 30.9462 196.645 30.5083C196.645 30.0704 196.702 29.6325 196.702 29.1947V27.881C196.702 27.4432 196.702 27.0053 196.702 26.5674C196.702 26.1295 196.64 25.6917 196.64 25.2538C196.64 24.8159 196.64 24.378 196.64 23.9402C196.64 23.5023 196.64 23.0644 196.64 22.6265H197.954H199.268C199.706 22.6265 200.143 22.6747 200.581 22.6747C201.019 22.6747 201.457 22.6484 201.895 22.6484H203.239C203.677 22.6484 204.115 22.6703 204.584 22.6703C205.052 22.6703 205.459 22.6484 205.923 22.6484C206.388 22.6484 206.799 22.6966 207.268 22.6966C207.736 22.6966 208.143 22.6616 208.612 22.6616C209.081 22.6616 209.488 22.6616 209.952 22.6616C210.416 22.6616 210.85 22.6616 211.296 22.6616H212.64C212.986 22.6616 213.078 22.5477 213.078 21.904C213.078 21.4005 213.078 20.8969 213.078 20.3934C213.078 19.8898 213.078 19.3862 213.078 18.8827C213.078 18.3791 213.078 17.8756 213.1 17.372C213.122 16.8685 213.043 16.6627 212.732 16.6627C212.295 16.6627 211.857 16.6933 211.393 16.6933C210.928 16.6933 210.517 16.7152 210.053 16.7152H208.713C208.275 16.7152 207.815 16.6583 207.368 16.6583C206.922 16.6583 206.493 16.6889 206.029 16.6889H204.689C204.251 16.6889 203.813 16.6539 203.349 16.6539C202.885 16.6539 202.473 16.6889 202.009 16.6889C201.545 16.6889 201.133 16.6889 200.665 16.6889C200.196 16.6889 199.789 16.7283 199.325 16.7283C198.86 16.7283 198.449 16.7064 197.985 16.7064C197.521 16.7064 197.109 16.6714 196.671 16.6714C196.671 16.2335 196.671 15.8176 196.671 15.3578C196.671 14.898 196.649 14.482 196.649 14.0442C196.649 13.6063 196.649 13.1684 196.649 12.7305C196.649 12.2927 196.649 11.8548 196.649 11.4169C196.649 10.979 196.57 10.5411 196.57 10.1033C196.57 9.66539 196.57 9.22752 196.57 8.78964C196.57 8.35177 196.645 7.91389 196.645 7.47601C196.645 7.03814 196.61 6.60026 196.61 6.16239C197.048 6.16239 197.486 6.18867 197.923 6.18867C198.361 6.18867 198.799 6.13174 199.237 6.13174C199.675 6.13174 200.113 6.17115 200.551 6.17115H201.864" fill="white"/>
<path d="M84.836 20.0739C84.836 19.636 84.836 19.1982 84.836 18.7384C84.836 18.2786 84.836 17.8626 84.836 17.4248C84.836 16.9869 84.836 16.549 84.836 16.0892C84.836 15.6295 84.7791 15.2135 84.7791 14.7537C84.7791 14.2939 84.8054 13.878 84.8054 13.4401C84.8054 13.0022 84.8054 12.5643 84.8054 12.1265C84.8054 11.6886 84.8535 11.2507 84.8535 10.8128V9.47731C84.8535 9.03943 84.8229 8.60156 84.8229 8.14179C84.8229 7.68202 84.8229 7.26604 84.8229 6.82816C84.8229 6.39028 84.8229 5.9524 84.8229 5.49263C84.8229 5.03286 84.8491 4.61688 84.8491 4.179C84.8491 3.74113 84.8491 3.30326 84.8491 2.84349C84.8491 2.38372 84.8886 1.96773 84.8886 1.52986C84.8886 0.934346 84.7265 0.654108 84.0829 0.697895C83.5793 0.697895 83.0714 0.754812 82.5678 0.759191C82.0643 0.76357 81.5563 0.759191 81.0528 0.759191C80.5492 0.759191 80.0413 0.697887 79.5377 0.689129C79.0342 0.680372 78.8722 0.829262 78.8722 1.37223C78.8722 1.8101 78.8284 2.27862 78.8284 2.72963C78.8284 3.18065 78.8765 3.63604 78.8765 4.09143C78.8765 4.54683 78.8152 4.99346 78.8152 5.44885C78.8152 5.90424 78.859 6.35525 78.859 6.80626C78.859 7.25727 78.8327 7.71266 78.8327 8.16368C78.8327 8.61469 78.8634 9.07009 78.8634 9.52548V10.8829C78.8634 11.3208 78.824 11.7893 78.824 12.2403C78.824 12.6913 78.824 13.1423 78.824 13.5933C78.3701 13.5165 77.9212 13.4127 77.4797 13.2824C77.0475 13.1168 76.625 12.9268 76.2142 12.7132C75.7889 12.5333 75.3737 12.3301 74.9707 12.1046C74.5837 11.8535 74.2096 11.5831 73.8497 11.2945C73.4819 11.0099 73.1009 10.7471 72.7682 10.4187C72.4354 10.0903 72.107 9.76192 71.8048 9.42038C71.5027 9.07884 71.2093 8.70664 70.9291 8.33882C70.6488 7.97101 70.4255 7.55503 70.1891 7.1697C69.9526 6.78437 69.7118 6.36401 69.506 5.96116C69.3002 5.55831 69.1119 5.11169 68.9455 4.69571C68.7791 4.27972 68.604 3.81995 68.477 3.38208C68.3245 2.95161 68.1958 2.51307 68.0916 2.06845C68.0085 1.62091 67.9704 1.16617 67.9778 0.711031C67.2509 0.522744 67.229 0.675993 66.4846 0.675993C65.7403 0.675993 65.7315 0.675993 64.9827 0.675993C64.2339 0.675993 64.234 0.675993 63.4808 0.675993C62.7277 0.675993 62.7277 0.732924 61.9789 0.737302C61.9789 0.737302 61.9789 0.737297 61.9789 0.759191C61.7337 0.824872 61.633 0.978135 61.633 1.36785C61.633 1.75755 61.5979 2.26549 61.5979 2.7165V4.06078C61.5979 4.49866 61.5979 4.95843 61.5979 5.40945V6.7581C61.5979 7.19597 61.576 7.65575 61.576 8.10238C61.576 8.54902 61.633 9.00002 61.633 9.45103C61.633 9.90205 61.5936 10.3487 61.5936 10.7997C61.5936 11.2507 61.5936 11.6973 61.5936 12.144C61.5936 12.5906 61.5936 13.0416 61.5936 13.4926C61.5936 13.9436 61.5629 14.3903 61.5629 14.8413C61.5629 15.2923 61.6023 15.7389 61.6023 16.1856C61.6023 16.6322 61.6023 17.0832 61.6023 17.5342C61.6023 17.9852 61.6023 18.4319 61.6023 18.8785C61.6023 19.3251 61.6023 19.7805 61.6023 20.2272C61.6023 20.6738 61.6023 21.1029 61.6023 21.5758C61.6023 22.0487 61.6373 22.4735 61.6373 22.9201C61.6373 23.3667 61.5936 23.8177 61.5936 24.2688C61.5936 24.7198 61.6242 25.1664 61.6242 25.6174C61.6242 26.0684 61.6023 26.5151 61.6023 26.9617C61.6023 27.4083 61.6461 27.8375 61.6461 28.3104C61.6461 28.7833 61.6023 29.208 61.6023 29.659C61.6023 30.11 61.576 30.5567 61.576 31.0033C61.576 31.4499 61.6505 31.9009 61.6505 32.352C61.6505 32.803 61.576 33.2277 61.576 33.7006C61.576 34.1735 61.576 34.5983 61.576 35.0449C61.576 35.4915 61.576 35.9425 61.576 36.3936C61.576 36.8446 61.541 37.2912 61.541 37.7378V39.0865C61.541 39.5594 61.6899 39.7258 62.1891 39.717C62.6883 39.7083 63.2181 39.6732 63.7304 39.6689C64.2427 39.6645 64.7594 39.7126 65.2717 39.717C65.784 39.7214 66.3007 39.682 66.813 39.6951C67.448 39.717 67.5487 39.5419 67.5443 38.9332C67.5443 38.4954 67.5925 38.0575 67.5925 37.5977C67.5925 37.1379 67.5925 36.722 67.5925 36.2578C67.5925 35.7937 67.6144 35.3821 67.6144 34.9179C67.6144 34.4538 67.5618 34.0422 67.5574 33.578C67.553 33.1139 67.5574 32.7023 67.5574 32.2381C67.5574 31.774 67.5925 31.3624 67.5925 30.8982C67.5925 30.4341 67.5443 30.0225 67.5443 29.5846C67.5443 29.1467 67.6056 28.7088 67.6056 28.2447C67.6056 27.7805 67.6056 27.3689 67.6056 26.9048C67.6056 26.4406 67.6056 26.029 67.6056 25.5649C67.6056 25.1007 67.5618 24.6891 67.5618 24.225C67.5618 23.7608 67.5618 23.3492 67.5618 22.8895C67.5618 22.4297 67.6231 22.0137 67.6231 21.5496C67.6231 21.0854 67.5749 20.6738 67.5749 20.2097C67.5749 19.7455 67.5749 19.3339 67.5749 18.896C67.5749 18.4581 67.5749 18.0203 67.5749 17.5824C67.5749 17.1445 67.6012 16.7066 67.6012 16.2688C67.6012 15.8309 67.6275 15.393 67.6275 14.9551C67.6275 14.5173 67.6275 14.11 67.6275 13.6765C67.9165 13.9918 68.188 14.2896 68.5032 14.5961C68.8185 14.9026 69.1732 15.1434 69.5016 15.4237C69.83 15.7039 70.1453 16.006 70.4912 16.2644C70.8371 16.5227 71.2137 16.7373 71.5771 16.9737C71.9406 17.2102 72.3128 17.4116 72.6937 17.6349C73.0747 17.8583 73.4425 18.0728 73.841 18.2392C74.2394 18.4056 74.6379 18.5545 75.0495 18.7077C75.4611 18.861 75.8552 19.0011 76.2756 19.1237C76.6959 19.2463 77.0944 19.3996 77.5235 19.4915C77.9526 19.5835 78.3686 19.6273 78.8021 19.6886C78.8021 20.1265 78.8021 20.6037 78.8021 21.0679C78.8021 21.532 78.8371 21.9918 78.8371 22.4516C78.8371 22.9113 78.8371 23.3799 78.8371 23.8396C78.8371 24.2994 78.8371 24.7636 78.8371 25.2277C78.8371 25.6919 78.8371 26.1516 78.8371 26.6158C78.8371 27.0799 78.8371 27.5397 78.8371 27.9995C78.8371 28.4592 78.8371 28.9234 78.8371 29.3875C78.8371 29.8517 78.8371 30.3115 78.8371 30.7756C78.8371 31.2398 78.8371 31.6995 78.8371 32.1593C78.8371 32.6191 78.894 33.0876 78.894 33.5474V34.9354C78.894 35.3733 78.894 35.8593 78.894 36.3235C78.894 36.7876 78.8502 37.2474 78.8502 37.7072C78.8502 38.1669 78.8721 38.6355 78.8502 39.0952C78.8283 39.555 78.986 39.7564 79.4852 39.7477C79.9843 39.7389 80.5098 39.682 81.0221 39.6776C81.5344 39.6732 82.0511 39.717 82.5634 39.7214C83.0758 39.7258 83.5924 39.7521 84.1048 39.7696C84.7397 39.7696 84.8798 39.5506 84.8798 38.942C84.8798 38.5041 84.8404 38.0662 84.8404 37.6065C84.8404 37.1467 84.8842 36.7307 84.8842 36.2666C84.8842 35.8024 84.8842 35.3908 84.8842 34.9267C84.8842 34.4625 84.8842 34.0509 84.8842 33.5868C84.8842 33.1226 84.8098 32.711 84.8098 32.2469C84.8098 31.7827 84.8667 31.3711 84.8667 30.907C84.8667 30.4428 84.8273 30.0312 84.8273 29.5933C84.8273 29.1555 84.8273 28.7176 84.8273 28.2534C84.8273 27.7893 84.8273 27.3777 84.8273 26.9135C84.8273 26.4494 84.8579 26.0378 84.8579 25.5736C84.8579 25.1095 84.8579 24.6979 84.8579 24.2337C84.8579 23.7696 84.8579 23.358 84.8579 22.8982C84.8579 22.4384 84.8579 22.0225 84.8579 21.5583C84.8579 21.0942 84.8842 20.6826 84.8842 20.2184" fill="white"/>
<path d="M54.129 19.8632C54.129 19.4253 54.129 18.9874 54.129 18.5496C54.129 18.1117 54.129 17.6738 54.129 17.214C54.129 16.7543 54.164 16.3383 54.164 15.8785C54.164 15.4187 54.164 15.0028 54.164 14.5649C54.164 14.127 54.164 13.6891 54.164 13.2294C54.164 12.7696 54.129 12.3536 54.129 11.8938C54.129 11.4341 54.129 11.0181 54.129 10.5802C54.129 10.1423 54.1903 9.70446 54.1903 9.24469C54.1903 8.78492 54.129 8.36894 54.129 7.93106C54.129 7.49319 54.1947 7.05532 54.1947 6.59555C54.1947 6.13578 54.1947 5.71979 54.1947 5.26002V3.94639C54.1947 3.50851 54.1947 3.07064 54.1947 2.61087C54.1947 2.1511 54.1947 1.73512 54.1947 1.29724C54.1947 0.697354 54.0545 0.491548 53.4109 0.513442C52.9073 0.513442 52.4038 0.478422 51.8958 0.482801C51.3879 0.48718 50.8887 0.561611 50.3808 0.557232L48.8657 0.535344C48.3665 0.535344 48.2089 0.60978 48.2089 1.14837C48.2089 1.60814 48.1783 2.04601 48.1783 2.462C48.1783 2.87798 48.1783 3.35964 48.1783 3.77562C48.1783 4.19161 48.1432 4.67765 48.1476 5.08925C48.152 5.50086 48.2001 5.99128 48.2001 6.40288C48.2001 6.81448 48.1257 7.30053 48.1257 7.71651C48.1257 8.13249 48.2045 8.61853 48.2045 9.03014C48.2045 9.44174 48.1739 9.92778 48.1739 10.3438C48.1739 10.7597 48.1345 11.2195 48.1345 11.6574C48.1345 12.0953 48.1607 12.5331 48.1607 12.971C48.1607 13.4089 48.2045 13.8468 48.2045 14.2846C48.2045 14.7225 48.1432 15.1604 48.1432 15.5983C48.1432 16.0362 48.1432 16.474 48.1432 16.9119V18.2255C48.1432 18.6634 48.1914 19.1013 48.1914 19.5392V20.8528C48.1914 21.2907 48.1914 21.7285 48.1914 22.1664V23.48C48.1914 23.9179 48.1914 24.3558 48.1914 24.7937C48.1914 25.2316 48.2001 25.5132 48.2001 25.9511C48.2001 25.9905 48.2001 26.1817 48.2001 26.2168C48.2001 27.1407 48.2001 27.1407 48.2001 28.0646C48.1493 28.9313 47.9601 29.7843 47.6397 30.5911C47.4447 30.981 47.2052 31.3469 46.9259 31.6815C46.3872 32.3653 45.6877 32.9053 44.8898 33.2534C44.5083 33.4576 44.1061 33.6205 43.69 33.7395C42.8345 33.9117 41.9533 33.9117 41.0978 33.7395C40.6793 33.6179 40.2754 33.4505 39.8936 33.2403C39.4953 33.0691 39.1178 32.8531 38.7683 32.5966C37.7248 31.7894 37.0017 30.6381 36.7278 29.3476C36.628 28.9169 36.578 28.4761 36.5789 28.034C36.5789 27.3552 36.5789 27.3552 36.5789 26.6765C36.5789 26.6196 36.5789 26.5627 36.5789 26.5014C36.5789 25.9759 36.5789 25.5381 36.5789 25.1878C36.5789 24.566 36.5789 24.1456 36.5789 23.8741C36.5789 22.7707 36.5789 23.664 36.5789 22.5605C36.5789 22.2759 36.6271 21.8555 36.6315 21.2469C36.6315 20.8791 36.5745 20.4412 36.5745 19.9332C36.5745 19.4954 36.5745 19.0575 36.5745 18.6196C36.5745 18.1817 36.6446 17.7439 36.6446 17.2841C36.6446 16.8243 36.5877 16.4083 36.5877 15.9486C36.5877 15.4888 36.6183 15.0728 36.6183 14.6349C36.6183 14.1971 36.5964 13.7592 36.5964 13.2994C36.5964 12.8397 36.5964 12.4237 36.5964 11.9639C36.5964 11.5041 36.6227 11.0881 36.6227 10.6503C36.6227 10.2124 36.5789 9.77452 36.5789 9.31475C36.5789 8.85498 36.6052 8.439 36.6052 8.00113C36.6052 7.56325 36.6052 7.12538 36.6052 6.66561V5.33008C36.6052 4.8922 36.5745 4.45433 36.5745 4.01645C36.5745 3.57857 36.6183 3.1407 36.6227 2.68093C36.6271 2.22116 36.5702 1.80518 36.5745 1.36731C36.5745 0.767415 36.4694 0.548474 35.8258 0.570368C35.3222 0.570368 34.8143 0.570368 34.3107 0.570368C33.8072 0.570368 33.2992 0.605401 32.7957 0.601022C32.2921 0.596644 31.7842 0.579125 31.2762 0.570368C30.7683 0.56161 30.5844 0.684211 30.5844 1.2228C30.5844 1.69133 30.5844 2.14235 30.6063 2.57585C30.6282 3.00935 30.5756 3.49539 30.5756 3.92888C30.5756 4.36238 30.5756 4.84842 30.5756 5.28192C30.5756 5.71542 30.6194 6.20145 30.6194 6.63057C30.6194 7.05969 30.5888 7.55012 30.5888 7.97924C30.5888 8.40836 30.6238 8.89877 30.6238 9.32789C30.6238 9.75701 30.5888 10.2474 30.5888 10.6809C30.5888 11.1144 30.5888 11.5917 30.5888 12.0296C30.5888 12.4675 30.5625 12.9316 30.5625 13.3739C30.5625 13.8161 30.6019 14.2715 30.6019 14.7181C30.6019 15.1648 30.6019 15.5939 30.6019 16.0624C30.6019 16.531 30.6413 16.9382 30.6413 17.3979C30.6413 17.8577 30.58 18.2737 30.58 18.7378C30.58 19.202 30.6107 19.6136 30.6063 20.0821C30.6019 20.5507 30.6063 20.9579 30.6063 21.4264V22.7707C30.6063 23.2086 30.6326 23.6464 30.6326 24.115C30.6326 24.5835 30.5625 24.9907 30.5625 25.468C30.5625 25.9453 30.6282 26.3438 30.6282 26.821C30.6282 26.8648 30.6282 26.8999 30.6282 26.9349C30.6282 27.5698 30.6282 27.5698 30.6282 28.2047C30.6159 28.6429 30.6276 29.0814 30.6632 29.5184C30.7 29.9593 30.7613 30.3979 30.8471 30.832C30.97 31.2571 31.1162 31.6752 31.285 32.0843C31.5469 32.9293 31.9131 33.7383 32.3753 34.4926C32.8624 35.2298 33.4308 35.9099 34.0699 36.52C34.3706 36.8441 34.6893 37.1511 35.0245 37.4395C35.3783 37.701 35.7467 37.9422 36.1279 38.162C36.4989 38.4001 36.8835 38.6165 37.2795 38.8101C37.6738 39.0075 38.0787 39.1829 38.4924 39.3355C39.3251 39.6299 40.1891 39.8268 41.0671 39.9223C41.9398 40.026 42.8217 40.026 43.6944 39.9223C44.137 39.8603 44.5756 39.7726 45.008 39.6596C45.4437 39.5802 45.8749 39.4778 46.2998 39.3531C46.7094 39.1877 47.1099 39.0006 47.4995 38.7926C47.9061 38.6185 48.3023 38.4211 48.6862 38.2014C49.0574 37.9625 49.4155 37.7037 49.759 37.4264C50.4372 36.8607 51.051 36.2219 51.5893 35.5216C51.8608 35.1757 52.1585 34.8473 52.395 34.4751C52.6274 34.0993 52.838 33.7104 53.0255 33.3104C53.2244 32.9146 53.4013 32.5083 53.5554 32.0931C53.6929 31.6739 53.8055 31.2469 53.8925 30.8145C53.9983 30.3817 54.0787 29.943 54.1334 29.5008C54.1675 29.0638 54.1777 28.6253 54.164 28.1872C54.164 27.2195 54.164 27.2195 54.164 26.2518C54.164 26.1993 54.164 26.138 54.164 26.0766C54.164 25.595 54.164 25.2009 54.164 24.8462C54.164 24.2814 54.164 23.8873 54.164 23.6202C54.164 22.3547 54.1159 23.7559 54.1159 22.4554C54.1159 22.1839 54.1159 21.7942 54.1159 21.2425C54.1159 20.9009 54.1159 20.5025 54.1159 20.0252" fill="white"/>
<path d="M10.149 9.94595C10.4605 9.61685 10.7956 9.31098 11.1517 9.0308C11.5121 8.75764 11.8895 8.50756 12.2814 8.28203C12.682 8.0691 13.0942 7.87904 13.5163 7.71278C13.9363 7.54528 14.3645 7.39913 14.7992 7.27491C15.2371 7.14792 15.675 7.05597 16.1129 6.97277C16.5507 6.88958 17.0149 6.77135 17.4484 6.72756C17.8819 6.68378 18.3767 6.64875 18.797 6.63561C19.2962 6.61372 19.7516 6.63561 20.1413 6.63561C20.0625 6.63561 20.0056 6.63561 20.6493 6.63561C21.1222 6.63561 21.2448 6.50425 21.236 6.00507C21.2273 5.50589 21.236 4.98044 21.236 4.46812C21.236 3.95581 21.236 3.4435 21.236 2.93119C21.236 2.41887 21.2579 1.90655 21.271 1.39424C21.2929 0.759316 21.074 0.641093 20.4741 0.645472C19.4626 0.645472 19.6379 0.644905 19.4496 0.644905C19.0423 0.644905 19.2437 0.641092 18.7182 0.658607C18.2804 0.658607 17.8118 0.65861 17.3126 0.715534C16.8135 0.772457 16.3975 0.785584 15.9158 0.855644C15.4342 0.925704 15.005 1.01329 14.5321 1.10962C14.0592 1.20595 13.6345 1.33293 13.1747 1.4643C12.715 1.59566 12.2771 1.71388 11.8304 1.88027C11.3838 2.04666 10.9766 2.25248 10.5431 2.4539C10.1096 2.65532 9.71988 2.89178 9.3039 3.12385C8.88792 3.35593 8.48068 3.56172 8.08659 3.82883C7.6925 4.09593 7.31155 4.35428 6.94374 4.65642C6.57592 4.95855 6.26504 5.30009 5.92349 5.63726C5.58195 5.97442 5.30608 6.28969 5.00832 6.63123C4.71057 6.97277 4.43471 7.32308 4.16761 7.68651C3.9005 8.04995 3.62025 8.40025 3.37942 8.78559C3.13859 9.17092 2.94155 9.56063 2.71386 9.96347C2.48616 10.3663 2.30663 10.7604 2.1271 11.1808C1.94757 11.6011 1.81183 12.0215 1.65857 12.4506C1.50532 12.8797 1.34768 13.2913 1.2207 13.7292C1.09371 14.1671 1.00614 14.605 0.896672 15.0428C0.787203 15.4807 0.712767 15.9186 0.625191 16.3565C0.537616 16.7943 0.471935 17.2322 0.406253 17.692C0.340572 18.1518 0.261753 18.5677 0.213587 19.0319C0.16542 19.496 0.147905 19.9076 0.117253 20.3762C0.0866022 20.8447 0.0252995 21.2738 0.00778446 21.7336C-0.00973058 22.1934 0.00778446 22.6093 0.00778446 23.0779C0.629568 23.2924 0.66022 23.0779 1.32141 23.0779H2.63504C3.29185 23.0779 3.29185 23.1085 3.94867 23.1085C4.60548 23.1085 4.60986 23.1085 5.2623 23.1085C5.91473 23.1085 5.91911 23.0822 6.57592 23.0822C7.23274 23.0822 7.23274 23.1392 7.88955 23.1392C8.54637 23.1392 8.55075 23.1173 9.20318 23.1173H10.5168C11.1736 23.1173 11.1736 23.0779 11.8304 23.0779C12.4873 23.0779 12.4873 23.0779 13.1441 23.0779C13.8009 23.0779 13.8053 23.0779 14.4577 23.0779C15.1101 23.0779 15.1233 23.0384 15.7713 23.0384C16.4194 23.0384 16.4369 23.0691 17.0849 23.0691C17.733 23.0691 17.7943 22.8326 18.4205 23.0691C18.3241 23.507 18.2059 23.9711 18.0877 24.3827C17.9695 24.7943 17.8644 25.2585 17.7155 25.6964C17.5666 26.1342 17.3608 26.5371 17.1725 26.9355C16.9811 27.343 16.7692 27.7405 16.5376 28.1266C16.3045 28.5112 16.0501 28.8825 15.7757 29.2388C15.489 29.5852 15.1788 29.9114 14.8474 30.2152C14.5363 30.5417 14.2027 30.8461 13.849 31.126C13.4806 31.384 13.0959 31.618 12.6974 31.8266C12.3097 32.0541 11.9074 32.2559 11.4933 32.4309C11.0769 32.6 10.6515 32.7462 10.2191 32.8688C9.78118 33.0001 9.34331 33.0571 8.90543 33.1403C8.46755 33.2234 8.00778 33.346 7.5918 33.3942C7.17582 33.4424 6.66788 33.4818 6.24752 33.4993C5.75272 33.4993 5.30171 33.4993 4.90762 33.4993C4.90762 33.4993 4.85506 33.4774 4.57045 33.4774C4.57045 33.4774 4.49336 33.4818 4.47147 33.4774L4.35589 33.4993C4.29897 33.4993 4.24623 33.4993 4.1718 33.4993C3.69889 33.4993 3.76476 33.7007 3.77352 34.1955C3.78228 34.6903 3.77352 35.2245 3.77352 35.7369C3.77352 36.2492 3.80854 36.7615 3.80416 37.2738C3.79978 37.7861 3.77352 38.2984 3.756 38.8108C3.756 39.4457 3.93554 39.5945 4.5398 39.5902C5.83154 39.5902 4.0669 39.5902 5.36301 39.5902V39.5464C5.77024 39.5464 6.23876 39.5814 6.7248 39.5464C7.16268 39.5245 7.60056 39.4719 8.08222 39.4238C8.56388 39.3756 8.95797 39.3581 9.43526 39.2793C9.91254 39.2005 10.311 39.056 10.7489 38.9552C11.1868 38.8545 11.6246 38.7845 12.0625 38.6487C12.5004 38.513 12.9383 38.3685 13.3499 38.2108C13.7615 38.0532 14.1731 37.8387 14.5891 37.6416C15.005 37.4446 15.4035 37.2519 15.8063 37.0198C16.2092 36.7878 16.6077 36.582 16.9886 36.3411C17.3696 36.1003 17.6936 35.7719 18.0527 35.4654C18.4117 35.1589 18.7576 34.9005 19.0904 34.5896C19.4232 34.2787 19.7078 33.9328 20.0056 33.5913C20.3033 33.2497 20.5485 32.8775 20.82 32.5097C21.0915 32.1419 21.3674 31.8003 21.6038 31.4106C21.8403 31.0209 22.0417 30.64 22.265 30.2327C22.4883 29.8255 22.6416 29.4227 22.8211 29.0023C23.0007 28.582 23.2196 28.1966 23.3772 27.7675C23.5349 27.3384 23.6093 26.8918 23.7407 26.4539C23.872 26.016 24.0034 25.6 24.1085 25.1403C24.2136 24.6805 24.2968 24.2645 24.38 23.8266C24.4632 23.3888 24.5682 22.9509 24.6339 22.513C24.6996 22.0751 24.7784 21.6372 24.8266 21.1687C24.8748 20.7002 24.866 20.293 24.8967 19.8201C24.9273 19.3471 24.9185 18.9224 24.9361 18.4626C24.9536 18.0029 25.0061 17.5256 25.0061 17.0658C24.3843 16.8469 24.3362 17.1008 23.6925 17.1008C23.0488 17.1008 23.0357 17.1008 22.3789 17.1008H18.438H17.1244C16.4632 17.1008 16.4632 17.1622 15.8107 17.1622C15.1583 17.1622 15.1539 17.1622 14.4971 17.1622H13.1835C12.5267 17.1622 12.5267 17.1271 11.8698 17.1271H10.5562C9.89502 17.1271 9.89502 17.1797 9.24259 17.1797C8.59015 17.1797 8.57702 17.1315 7.92896 17.1315C7.2809 17.1315 7.22398 17.3811 6.61533 17.1315C6.71167 16.6936 6.78611 16.2251 6.90433 15.8179C7.02256 15.4106 7.20209 14.9421 7.34221 14.5393C7.48233 14.1364 7.64872 13.6635 7.83701 13.2826C8.04014 12.8802 8.26375 12.4885 8.50696 12.1091C8.73859 11.7253 8.99454 11.3567 9.27324 11.0056C9.54298 10.6485 9.83551 10.3092 10.149 9.98975" fill="white"/>
</svg>
