<svg width="22" height="20" viewBox="0 0 22 20" fill="none" xmlns="http://www.w3.org/2000/svg">
<path d="M21.949 10.3436C21.9256 10.2714 21.9724 10.1992 21.9724 10.127C21.9724 9.95856 21.9724 9.79011 21.949 9.62165C21.8555 9.04409 21.7386 8.46653 21.6216 7.91303C21.5983 7.81677 21.5749 7.74457 21.5281 7.64831C21.4346 7.38359 21.3644 7.11887 21.2241 6.85416C21.1072 6.61351 20.9201 6.39692 20.7564 6.15627C20.7331 6.1322 20.7097 6.08407 20.7097 6.06001C20.5694 5.74716 20.3589 5.48244 20.0783 5.28992C19.8912 5.14553 19.7275 4.95301 19.6808 4.68829C19.634 4.44764 19.4937 4.27918 19.3534 4.11073C18.9793 3.60536 18.535 3.14812 17.9971 2.81121C17.9036 2.76308 17.8335 2.66682 17.7399 2.59462C17.4359 2.35397 17.1319 2.11332 16.7578 1.99299C16.4772 1.89673 16.2433 1.75234 16.0095 1.53576C15.5418 1.12665 15.0274 0.837865 14.396 0.789735C13.9517 0.741604 13.484 0.645344 13.0631 0.452822C12.5955 0.236236 12.1278 0.139975 11.6367 0.0918446C10.7949 -0.0284812 9.97647 -0.00441604 9.13465 0.0196491C8.55005 0.0437143 8.01222 0.11591 7.45101 0.284366C6.86641 0.452822 6.32858 0.741604 5.76737 1.00632C5.18277 1.27104 4.64494 1.55982 4.17726 1.99299C4.1305 2.04112 4.06035 2.08925 4.01358 2.13738C3.59267 2.4021 3.21853 2.73901 2.9613 3.19625C2.93792 3.24438 2.89115 3.29251 2.84438 3.31658C2.28317 3.77382 2.02595 4.47171 1.58165 5.0252C1.53489 5.07333 1.53489 5.1696 1.5115 5.24179C1.46473 5.43431 1.3712 5.5787 1.2309 5.72309C1.02044 5.91562 0.903521 6.18033 0.856753 6.46911C0.833369 6.63757 0.739834 6.83009 0.646298 6.97448C0.529379 7.19107 0.435843 7.43172 0.459227 7.67237C0.482611 7.81676 0.459227 7.93709 0.389076 8.05742C0.225389 8.32213 0.155237 8.58685 0.248772 8.92376C0.272156 9.04409 0.248772 9.18848 0.178621 9.30881C0.0383175 9.54946 0.0383175 9.76604 0.108469 10.0067C0.131853 10.103 0.131853 10.2473 0.0850853 10.3436C-0.0318341 10.6083 -0.00845024 10.8971 0.0383175 11.1859C0.0850853 11.4025 0.0850853 11.6431 0.155237 11.8597C0.318924 12.317 0.505995 12.7742 0.669682 13.2074C0.71645 13.1833 0.763218 13.2074 0.786602 13.2314C0.973673 13.448 1.11398 13.6887 1.18413 13.9534C1.20751 14.0496 1.25428 14.194 1.32443 14.2422C1.60504 14.4347 1.69857 14.7475 1.83888 15.0123C2.00256 15.301 2.18963 15.5417 2.44686 15.7342C2.58716 15.8305 2.6807 15.9749 2.77423 16.0952C2.98469 16.3358 3.17176 16.6246 3.45236 16.7449C3.77974 16.8893 4.03696 17.13 4.29418 17.3706C4.50464 17.5872 4.76186 17.7316 5.06585 17.7797C5.34646 17.8279 5.60368 17.9241 5.8609 17.9963C6.3052 18.1407 6.77288 18.3092 7.21717 18.4536C7.54454 18.5498 7.8953 18.6461 8.24606 18.6702C9.29833 18.6942 10.374 18.7905 11.4497 18.6942C11.9641 18.6461 12.385 18.4776 12.7358 18.1167C13.0398 17.8038 13.3671 17.6354 13.7647 17.491C14.1154 17.3706 14.4428 17.1781 14.6532 16.8653C14.8169 16.6246 15.004 16.4321 15.2612 16.3118C15.4717 16.1914 15.6354 16.023 15.7289 15.7823C15.7991 15.5176 15.9861 15.3251 16.1732 15.1566C16.3369 15.0123 16.4538 14.8197 16.5006 14.5791C16.5473 14.2903 16.6643 14.0496 16.8981 13.8571C17.0384 13.7368 17.0852 13.5443 17.1319 13.3518C17.1787 13.1592 17.2021 12.9426 17.2722 12.7501C17.4593 12.2207 17.5762 11.6913 17.5762 11.1618C17.5996 9.81417 17.3892 8.49059 16.5941 7.33546C16.5707 7.28733 16.524 7.2392 16.5006 7.19107C16.3837 6.83009 16.1264 6.61351 15.8224 6.39692C15.6588 6.27659 15.4717 6.15627 15.3781 5.98781C15.1911 5.69903 14.9572 5.53057 14.6532 5.41025C14.3259 5.28992 14.0453 5.12147 13.8114 4.90488C13.5074 4.6161 13.1567 4.44764 12.7591 4.30325C12.4785 4.20699 12.2213 4.08666 11.9641 3.94227C11.3327 3.55723 10.6078 3.48503 9.90631 3.41284C9.85955 3.41284 9.83616 3.41284 9.7894 3.41284C9.36849 3.5091 8.92419 3.60536 8.50328 3.84601C8.26944 3.9904 8.0356 4.13479 7.77838 4.23105C6.88979 4.56797 6.32858 5.28992 5.65045 5.89155C5.5803 5.96375 5.53353 6.08407 5.46338 6.18033C5.29969 6.42098 5.11262 6.66164 4.94893 6.90229C4.8554 7.04668 4.78525 7.19107 4.71509 7.33546C4.62156 7.55205 4.52802 7.7927 4.4111 8.00929C4.36434 8.12961 4.2708 8.24994 4.24742 8.37026C4.15388 8.87563 3.94343 9.381 4.08373 9.9345C4.10711 10.0308 4.08373 10.127 4.08373 10.2233C4.01358 10.7527 4.1305 11.2821 4.24742 11.7875C4.43449 12.5576 4.8554 13.2074 5.34646 13.7849C5.53353 14.0015 5.74398 14.17 6.00121 14.2903C6.3052 14.4347 6.5858 14.6272 6.86641 14.7957C7.24055 15.0123 7.6147 15.2048 8.05899 15.2048C8.73712 15.2048 9.41525 15.2048 10.0934 15.2048C10.4909 15.2048 10.7949 15.0363 11.1223 14.8438C11.9407 14.2903 12.4552 13.448 13.0631 12.702C13.0865 12.6539 13.1099 12.6057 13.1333 12.5576C13.601 11.4506 13.6244 10.3195 13.3204 9.16441C13.297 9.11628 13.2736 9.06815 13.2502 9.02002C12.8761 8.32213 12.385 7.7205 11.6601 7.35953C11.4964 7.28733 11.3327 7.19107 11.1924 7.07074C10.7248 6.70977 10.2103 6.56538 9.64909 6.63757C9.18141 6.6857 8.73712 6.78196 8.31621 6.97448C8.10576 7.04668 7.91868 7.167 7.755 7.3114C7.33409 7.74457 6.70272 8.24994 6.81964 8.85157C6.86641 9.06815 6.88979 9.23661 6.95995 9.4532C7.12363 9.98263 7.26394 10.1511 7.42762 10.3677L7.52116 10.5121C7.61469 10.7046 7.66146 10.7768 7.80177 10.9452C7.91868 11.0896 8.0356 11.1859 8.15252 11.3543C8.08237 11.3543 8.0356 11.3784 8.01222 11.3784C7.82515 11.3543 7.63808 11.3303 7.45101 11.2822C7.3107 11.2581 7.19379 11.21 7.05348 11.234C7.0301 11.3062 7.0301 11.3543 7.0301 11.4265C7.0301 11.5709 7.00671 11.6913 7.00671 11.8356C7.21717 11.9319 7.45101 11.9319 7.66146 11.9078C7.77838 11.9078 7.91868 11.9078 8.0356 11.956C8.26944 12.0763 8.50328 12.1004 8.73712 12.1004C8.90081 12.1004 8.90081 12.1004 9.0645 12.1966C9.18141 12.1485 9.25157 12.0522 9.22818 11.9078C9.18142 11.6672 9.08788 11.4265 9.11126 11.1859C9.0645 11.0415 9.08788 10.8971 9.08788 10.7527C9.11126 10.5602 9.08788 10.3436 9.01773 10.1511C8.97096 10.0548 8.90081 9.95857 8.80727 9.91043C8.69035 9.83824 8.59682 9.91043 8.59682 10.0548C8.6202 10.3195 8.64359 10.6083 8.64359 10.873C8.64359 10.9934 8.66697 11.1137 8.64359 11.21C8.52667 11.1859 8.4799 11.1137 8.43313 11.0415C8.33959 10.9212 8.29283 10.8008 8.17591 10.7287C7.98884 10.5843 7.8953 10.3917 7.82515 10.1752C7.77838 10.0548 7.73161 9.91043 7.68485 9.79011L7.61469 9.59759C7.56793 9.52539 7.56793 9.42913 7.56793 9.35694C7.54454 9.18848 7.45101 9.06815 7.52116 8.92376C7.66146 8.51465 7.8953 8.17774 8.22268 7.93709C8.66697 7.62424 9.15803 7.52798 9.67248 7.45579C10.1635 7.40766 10.6078 7.52798 11.0287 7.7927C11.2392 7.93709 11.473 8.03335 11.6835 8.17774C11.8939 8.32213 12.1278 8.46653 12.2915 8.65905C13.2268 9.71791 13.1567 11.0174 12.4552 12.1726C12.2213 12.5576 11.9407 12.9186 11.6601 13.2555C11.1924 13.7849 10.6546 14.2181 9.95308 14.2903C9.01773 14.3866 8.05899 14.4588 7.12363 14.0496C6.56242 13.809 6.07136 13.4961 5.65045 12.9908C5.20616 12.4613 4.94893 11.8838 4.87878 11.21C4.78525 10.488 4.76186 9.79011 4.9957 9.06815C5.32307 8.00929 5.83752 7.09481 6.5858 6.32472C7.00671 5.89155 7.47439 5.50651 7.96545 5.21773C8.45651 4.92894 9.01773 4.78455 9.55556 4.59203C9.76601 4.51984 9.99985 4.49577 10.2103 4.51984C10.7014 4.56797 11.1924 4.6161 11.6835 4.71236C12.1278 4.78455 12.5253 5.00114 12.8995 5.24179C13.1801 5.43431 13.484 5.6509 13.788 5.81936C14.2791 6.08407 14.7702 6.32472 15.1443 6.7579C15.1911 6.80603 15.2378 6.83009 15.2846 6.85416C15.7757 7.2392 16.1498 7.7205 16.407 8.29807C16.9916 9.62165 16.9682 10.9693 16.6175 12.341C16.407 13.1352 16.0095 13.8571 15.5886 14.5309C15.2378 15.1085 14.8169 15.662 14.2557 16.1192C13.8114 16.4802 13.3905 16.8171 12.8761 17.0578C12.6656 17.1541 12.4785 17.2744 12.2915 17.3706C11.9641 17.5632 11.59 17.6835 11.1924 17.7316C10.1168 17.876 9.0645 17.7076 8.01222 17.6594C7.94207 17.6594 7.87192 17.6113 7.80177 17.6113C7.33409 17.5391 6.86641 17.4428 6.39873 17.3706C5.88429 17.2744 5.41661 17.0819 4.9957 16.769C4.69171 16.5524 4.38772 16.3358 4.08373 16.1433C3.94343 16.0471 3.80312 15.9749 3.6862 15.8545C3.38221 15.5417 3.07822 15.2048 2.77423 14.8679C2.65731 14.7235 2.54039 14.5791 2.44686 14.4106C2.35332 14.2903 2.28317 14.1459 2.18963 14.0496C1.76872 13.5924 1.48812 13.0389 1.25428 12.4613C1.02044 11.9078 0.926905 11.3062 0.926905 10.6805C0.880137 9.62165 1.09059 8.58685 1.41797 7.57611C1.55827 7.14294 1.72196 6.70977 1.9558 6.34879C2.40009 5.62683 2.86777 4.92894 3.33544 4.23105C3.4056 4.11073 3.49913 4.01447 3.59267 3.91821C3.84989 3.65349 4.10711 3.38877 4.38772 3.12406C4.55141 2.9556 4.76186 2.81121 4.94893 2.66682C5.32307 2.4021 5.69722 2.16145 6.07136 1.94486C6.23505 1.8486 6.39873 1.75234 6.56242 1.68015C7.38086 1.3673 8.19929 1.17478 9.0645 1.05445C10.2337 0.885995 11.4029 1.07852 12.5721 1.15071C12.6422 1.15071 12.7124 1.19884 12.7825 1.19884C13.0164 1.24697 13.2502 1.31917 13.484 1.34323C13.905 1.41543 14.3025 1.55982 14.6766 1.77641C15.3781 2.20958 16.0563 2.64275 16.7578 3.05186C17.6931 3.60536 18.4414 4.37545 19.0026 5.33805C19.0494 5.41025 19.0962 5.50651 19.1663 5.55464C19.3534 5.69903 19.4703 5.93968 19.5872 6.1322C19.7275 6.34879 19.8912 6.56538 20.0082 6.78196C20.1251 6.97448 20.1952 7.19107 20.2888 7.38359C20.3355 7.50392 20.3589 7.64831 20.4057 7.76863C20.7798 8.8275 20.9903 9.91044 20.85 11.0415C20.85 11.0896 20.8266 11.1618 20.8266 11.21C20.8032 11.8838 20.7331 12.5576 20.6395 13.2314C20.4992 14.2181 20.1952 15.1326 19.7977 16.0471C19.5872 16.5284 19.3534 16.9856 19.2365 17.515C19.2131 17.6354 19.1663 17.7797 19.0728 17.8519C18.6987 18.1648 18.4414 18.598 18.231 19.0071C18.1608 19.1274 18.0439 19.2477 17.9504 19.368C17.8802 19.4643 17.8568 19.5606 17.7867 19.6568C17.8568 19.705 17.8802 19.7531 17.927 19.7772C18.2076 19.8493 18.4882 19.9456 18.7688 19.9937C18.8857 20.0178 19.0494 19.9697 19.1196 19.8975C19.3066 19.729 19.4703 19.5606 19.5872 19.344C19.7977 18.983 19.9614 18.598 20.1251 18.237C20.1952 18.0926 20.2186 17.9241 20.2654 17.7557C20.2888 17.5872 20.3589 17.4428 20.4758 17.3225C20.5928 17.2022 20.7331 17.0578 20.7564 16.9134C20.8266 16.5765 21.037 16.2877 21.1306 15.9749C21.2943 15.4454 21.458 14.8919 21.5749 14.3625C21.6216 14.194 21.645 14.0256 21.6684 13.8571C21.7152 13.5683 21.7619 13.2555 21.7853 12.9667C21.8087 12.8705 21.8087 12.7742 21.8087 12.6779C21.8321 12.3891 21.8789 12.1244 21.9022 11.8356C21.9958 11.3543 22.0426 10.849 21.949 10.3436Z" fill="#251D16"/>
</svg>
