<svg width="23" height="21" viewBox="0 0 23 21" fill="none" xmlns="http://www.w3.org/2000/svg">
<path d="M22.7219 10.5936C22.6979 10.5214 22.7459 10.4492 22.7459 10.377C22.7459 10.2086 22.7459 10.0401 22.7219 9.87165C22.626 9.29409 22.5062 8.71653 22.3864 8.16303C22.3624 8.06677 22.3384 7.99457 22.2905 7.89831C22.1946 7.63359 22.1227 7.36887 21.9789 7.10416C21.8591 6.86351 21.6674 6.64692 21.4996 6.40627C21.4757 6.3822 21.4517 6.33407 21.4517 6.31001C21.3079 5.99716 21.0922 5.73244 20.8046 5.53992C20.6129 5.39553 20.4451 5.20301 20.3972 4.93829C20.3493 4.69764 20.2055 4.52918 20.0617 4.36073C19.6782 3.85536 19.2229 3.39812 18.6716 3.06121C18.5758 3.01308 18.5039 2.91682 18.408 2.84462C18.0965 2.60397 17.7849 2.36332 17.4015 2.24299C17.1139 2.14673 16.8742 2.00234 16.6345 1.78576C16.1552 1.37665 15.628 1.08786 14.9809 1.03973C14.5255 0.991604 14.0462 0.895344 13.6148 0.702822C13.1355 0.486236 12.6562 0.389975 12.1529 0.341845C11.2901 0.221519 10.4513 0.245584 9.58857 0.269649C8.98942 0.293714 8.43821 0.36591 7.86302 0.534366C7.26388 0.702822 6.71266 0.991604 6.13748 1.25632C5.53833 1.52104 4.98712 1.80982 4.5078 2.24299C4.45987 2.29112 4.38797 2.33925 4.34004 2.38738C3.90865 2.6521 3.5252 2.98901 3.26157 3.44625C3.23761 3.49438 3.18967 3.54251 3.14174 3.56658C2.56656 4.02382 2.30294 4.72171 1.84758 5.2752C1.79965 5.32334 1.79965 5.4196 1.77569 5.49179C1.72775 5.68431 1.63189 5.8287 1.48809 5.97309C1.2724 6.16562 1.15257 6.43033 1.10464 6.71911C1.08067 6.88757 0.984811 7.08009 0.888947 7.22448C0.769118 7.44107 0.673254 7.68172 0.69722 7.92237C0.721186 8.06676 0.69722 8.18709 0.625322 8.30742C0.457561 8.57213 0.385663 8.83685 0.481527 9.17376C0.505493 9.29409 0.481527 9.43848 0.409629 9.55881C0.265834 9.79946 0.265834 10.016 0.337731 10.2567C0.361697 10.353 0.361697 10.4973 0.313766 10.5936C0.193936 10.8583 0.217902 11.1471 0.265834 11.4359C0.313766 11.6525 0.313766 11.8931 0.385663 12.1097C0.553425 12.567 0.745152 13.0242 0.912913 13.4574C0.960845 13.4333 1.00878 13.4574 1.03274 13.4814C1.22447 13.698 1.36827 13.9387 1.44016 14.2034C1.46413 14.2996 1.51206 14.444 1.58396 14.4922C1.87155 14.6847 1.96741 14.9975 2.11121 15.2623C2.27897 15.551 2.4707 15.7917 2.73432 15.9842C2.87812 16.0805 2.97398 16.2249 3.06984 16.3452C3.28554 16.5858 3.47726 16.8746 3.76486 16.9949C4.10038 17.1393 4.364 17.38 4.62763 17.6206C4.84332 17.8372 5.10695 17.9816 5.4185 18.0297C5.70609 18.0779 5.96972 18.1741 6.23334 18.2463C6.6887 18.3907 7.16801 18.5592 7.62337 18.7036C7.95889 18.7998 8.31838 18.8961 8.67787 18.9202C9.75633 18.9442 10.8588 19.0405 11.9612 18.9442C12.4884 18.8961 12.9198 18.7276 13.2793 18.3667C13.5909 18.0538 13.9264 17.8854 14.3338 17.741C14.6933 17.6206 15.0288 17.4281 15.2445 17.1153C15.4123 16.8746 15.604 16.6821 15.8676 16.5618C16.0833 16.4414 16.2511 16.273 16.347 16.0323C16.4189 15.7676 16.6106 15.5751 16.8023 15.4066C16.9701 15.2623 17.0899 15.0697 17.1378 14.8291C17.1858 14.5403 17.3056 14.2996 17.5452 14.1071C17.689 13.9868 17.737 13.7943 17.7849 13.6018C17.8328 13.4092 17.8568 13.1926 17.9287 13.0001C18.1204 12.4707 18.2403 11.9413 18.2403 11.4118C18.2642 10.0642 18.0485 8.74059 17.2337 7.58546C17.2097 7.53733 17.1618 7.4892 17.1378 7.44107C17.018 7.08009 16.7544 6.86351 16.4428 6.64692C16.2751 6.52659 16.0833 6.40627 15.9875 6.23781C15.7957 5.94903 15.5561 5.78057 15.2445 5.66025C14.909 5.53992 14.6214 5.37147 14.3818 5.15488C14.0702 4.8661 13.7107 4.69764 13.3033 4.55325C13.0157 4.45699 12.7521 4.33666 12.4884 4.19227C11.8414 3.80723 11.0984 3.73503 10.3794 3.66284C10.3315 3.66284 10.3075 3.66284 10.2596 3.66284C9.82823 3.7591 9.37288 3.85536 8.94149 4.09601C8.70183 4.2404 8.46217 4.38479 8.19855 4.48105C7.28784 4.81797 6.71266 5.53992 6.01765 6.14155C5.94575 6.21375 5.89782 6.33407 5.82592 6.43033C5.65816 6.67098 5.46643 6.91164 5.29867 7.15229C5.20281 7.29668 5.13091 7.44107 5.05901 7.58546C4.96315 7.80205 4.86729 8.0427 4.74746 8.25929C4.69953 8.37961 4.60366 8.49994 4.5797 8.62026C4.48383 9.12563 4.26814 9.631 4.41193 10.1845C4.4359 10.2808 4.41193 10.377 4.41193 10.4733C4.34004 11.0027 4.45987 11.5322 4.5797 12.0375C4.77142 12.8076 5.20281 13.4574 5.70609 14.0349C5.89782 14.2515 6.11351 14.42 6.37714 14.5403C6.6887 14.6847 6.97629 14.8772 7.26388 15.0457C7.64733 15.2623 8.03079 15.4548 8.48614 15.4548C9.18115 15.4548 9.87616 15.4548 10.5712 15.4548C10.9786 15.4548 11.2901 15.2863 11.6257 15.0938C12.4645 14.5403 12.9917 13.698 13.6148 12.952C13.6388 12.9039 13.6628 12.8557 13.6867 12.8076C14.1661 11.7006 14.19 10.5695 13.8785 9.41441C13.8545 9.36628 13.8305 9.31815 13.8066 9.27002C13.4231 8.57213 12.9198 7.9705 12.1769 7.60953C12.0091 7.53733 11.8414 7.44107 11.6976 7.32074C11.2183 6.95977 10.691 6.81538 10.1158 6.88757C9.6365 6.9357 9.18115 7.03196 8.74976 7.22448C8.53407 7.29668 8.34234 7.417 8.17458 7.5614C7.74319 7.99457 7.09612 8.49994 7.21595 9.10157C7.26388 9.31815 7.28784 9.48661 7.35974 9.7032C7.5275 10.2326 7.6713 10.4011 7.83906 10.6177L7.93492 10.7621C8.03079 10.9546 8.07872 11.0268 8.22251 11.1952C8.34234 11.3396 8.46217 11.4359 8.582 11.6043C8.5101 11.6043 8.46217 11.6284 8.43821 11.6284C8.24648 11.6043 8.05475 11.5803 7.86302 11.5322C7.71923 11.5081 7.5994 11.46 7.45561 11.484C7.43164 11.5562 7.43164 11.6043 7.43164 11.6765C7.43164 11.8209 7.40767 11.9413 7.40767 12.0856C7.62337 12.1819 7.86302 12.1819 8.07872 12.1578C8.19855 12.1578 8.34234 12.1578 8.46217 12.206C8.70183 12.3263 8.94149 12.3504 9.18115 12.3504C9.34891 12.3504 9.34891 12.3504 9.51667 12.4466C9.6365 12.3985 9.7084 12.3022 9.68443 12.1578C9.6365 11.9172 9.54064 11.6765 9.5646 11.4359C9.51667 11.2915 9.54064 11.1471 9.54064 11.0027C9.5646 10.8102 9.54064 10.5936 9.46874 10.4011C9.42081 10.3048 9.34891 10.2086 9.25305 10.1604C9.13322 10.0882 9.03735 10.1604 9.03735 10.3048C9.06132 10.5695 9.08529 10.8583 9.08529 11.123C9.08529 11.2434 9.10925 11.3637 9.08529 11.46C8.96546 11.4359 8.91752 11.3637 8.86959 11.2915C8.77373 11.1712 8.7258 11.0508 8.60597 10.9787C8.41424 10.8343 8.31838 10.6417 8.24648 10.4252C8.19855 10.3048 8.15062 10.1604 8.10268 10.0401L8.03079 9.84759C7.98285 9.77539 7.98285 9.67913 7.98285 9.60694C7.95889 9.43848 7.86302 9.31815 7.93492 9.17376C8.07872 8.76465 8.31838 8.42774 8.6539 8.18709C9.10925 7.87424 9.61253 7.77798 10.1398 7.70579C10.6431 7.65766 11.0984 7.77798 11.5298 8.0427C11.7455 8.18709 11.9852 8.28335 12.2009 8.42774C12.4165 8.57213 12.6562 8.71653 12.824 8.90905C13.7826 9.96791 13.7107 11.2674 12.9917 12.4226C12.7521 12.8076 12.4645 13.1686 12.1769 13.5055C11.6976 14.0349 11.1464 14.4681 10.4274 14.5403C9.46874 14.6366 8.48614 14.7088 7.5275 14.2996C6.95232 14.059 6.44904 13.7461 6.01765 13.2408C5.5623 12.7113 5.29867 12.1338 5.22678 11.46C5.13091 10.738 5.10695 10.0401 5.34661 9.31815C5.68213 8.25929 6.20938 7.34481 6.97629 6.57472C7.40767 6.14155 7.88699 5.75651 8.39027 5.46773C8.89356 5.17894 9.46874 5.03455 10.02 4.84203C10.2356 4.76984 10.4753 4.74577 10.691 4.76984C11.1943 4.81797 11.6976 4.8661 12.2009 4.96236C12.6562 5.03455 13.0636 5.25114 13.4471 5.49179C13.7347 5.68431 14.0462 5.9009 14.3578 6.06936C14.8611 6.33407 15.3644 6.57472 15.7478 7.0079C15.7957 7.05603 15.8437 7.08009 15.8916 7.10416C16.3949 7.4892 16.7783 7.9705 17.042 8.54807C17.6411 9.87165 17.6171 11.2193 17.2577 12.591C17.042 13.3852 16.6345 14.1071 16.2032 14.7809C15.8437 15.3585 15.4123 15.912 14.8371 16.3692C14.3818 16.7302 13.9504 17.0671 13.4231 17.3078C13.2074 17.4041 13.0157 17.5244 12.824 17.6206C12.4884 17.8132 12.105 17.9335 11.6976 17.9816C10.5951 18.126 9.51667 17.9576 8.43821 17.9094C8.36631 17.9094 8.29441 17.8613 8.22251 17.8613C7.74319 17.7891 7.26388 17.6928 6.78456 17.6206C6.25731 17.5244 5.77799 17.3319 5.34661 17.019C5.03505 16.8024 4.72349 16.5858 4.41193 16.3933C4.26814 16.2971 4.12434 16.2249 4.00451 16.1045C3.69296 15.7917 3.3814 15.4548 3.06984 15.1179C2.95001 14.9735 2.83019 14.8291 2.73432 14.6606C2.63846 14.5403 2.56656 14.3959 2.4707 14.2996C2.03931 13.8424 1.75172 13.2889 1.51206 12.7113C1.2724 12.1578 1.17654 11.5562 1.17654 10.9305C1.12861 9.87165 1.3443 8.83685 1.67982 7.82611C1.82362 7.39294 1.99138 6.95977 2.23104 6.59879C2.68639 5.87683 3.16571 5.17894 3.64503 4.48105C3.71692 4.36073 3.81279 4.26447 3.90865 4.16821C4.17228 3.90349 4.4359 3.63877 4.72349 3.37406C4.89125 3.2056 5.10695 3.06121 5.29867 2.91682C5.68213 2.6521 6.06558 2.41145 6.44904 2.19486C6.6168 2.0986 6.78456 2.00234 6.95232 1.93015C7.79113 1.6173 8.62993 1.42478 9.51667 1.30445C10.715 1.136 11.9133 1.32852 13.1116 1.40071C13.1835 1.40071 13.2554 1.44884 13.3273 1.44884C13.5669 1.49697 13.8066 1.56917 14.0462 1.59323C14.4776 1.66543 14.885 1.80982 15.2685 2.02641C15.9875 2.45958 16.6825 2.89275 17.4015 3.30186C18.3601 3.85536 19.127 4.62545 19.7022 5.58805C19.7501 5.66025 19.798 5.75651 19.8699 5.80464C20.0617 5.94903 20.1815 6.18968 20.3013 6.3822C20.4451 6.59879 20.6129 6.81538 20.7327 7.03196C20.8525 7.22448 20.9244 7.44107 21.0203 7.63359C21.0682 7.75392 21.0922 7.89831 21.1401 8.01863C21.5236 9.0775 21.7393 10.1604 21.5955 11.2915C21.5955 11.3396 21.5715 11.4118 21.5715 11.46C21.5476 12.1338 21.4757 12.8076 21.3798 13.4814C21.236 14.4681 20.9244 15.3826 20.517 16.2971C20.3013 16.7784 20.0617 17.2356 19.9418 17.765C19.9179 17.8854 19.8699 18.0297 19.7741 18.1019C19.3906 18.4148 19.127 18.848 18.9113 19.2571C18.8394 19.3774 18.7196 19.4977 18.6237 19.618C18.5518 19.7143 18.5279 19.8106 18.456 19.9068C18.5279 19.955 18.5518 20.0031 18.5997 20.0272C18.8873 20.0993 19.1749 20.1956 19.4625 20.2437C19.5824 20.2678 19.7501 20.2197 19.822 20.1475C20.0137 19.979 20.1815 19.8106 20.3013 19.594C20.517 19.233 20.6848 18.848 20.8525 18.487C20.9244 18.3426 20.9484 18.1741 20.9963 18.0057C21.0203 17.8372 21.0922 17.6928 21.212 17.5725C21.3319 17.4522 21.4757 17.3078 21.4996 17.1634C21.5715 16.8265 21.7872 16.5377 21.8831 16.2249C22.0508 15.6954 22.2186 15.1419 22.3384 14.6125C22.3864 14.444 22.4103 14.2756 22.4343 14.1071C22.4822 13.8183 22.5302 13.5055 22.5541 13.2167C22.5781 13.1205 22.5781 13.0242 22.5781 12.9279C22.6021 12.6391 22.65 12.3744 22.674 12.0856C22.7698 11.6043 22.8177 11.099 22.7219 10.5936Z" fill="white"/>
</svg>
